<?xml version="1.0" encoding="UTF-8" standalone="no"?>
<svg
   xmlns:dc="http://purl.org/dc/elements/1.1/"
   xmlns:cc="http://creativecommons.org/ns#"
   xmlns:rdf="http://www.w3.org/1999/02/22-rdf-syntax-ns#"
   xmlns:svg="http://www.w3.org/2000/svg"
   xmlns="http://www.w3.org/2000/svg"
   xmlns:sodipodi="http://sodipodi.sourceforge.net/DTD/sodipodi-0.dtd"
   xmlns:inkscape="http://www.inkscape.org/namespaces/inkscape"
   width="210mm"
   height="297mm"
   viewBox="0 0 210 297"
   version="1.1"
   id="svg9906"
   inkscape:version="1.0.1 (3bc2e813f5, 2020-09-07)"
   sodipodi:docname="macropad-3x2-with-rotary-encoder.svg">
  <title
     id="title11484">macropad 3x2 with rotary encoder</title>
  <defs
     id="defs9900" />
  <sodipodi:namedview
     id="base"
     pagecolor="#ffffff"
     bordercolor="#666666"
     borderopacity="1.0"
     inkscape:pageopacity="0.0"
     inkscape:pageshadow="2"
     inkscape:zoom="4.0000001"
     inkscape:cx="238.21763"
     inkscape:cy="260.65665"
     inkscape:document-units="mm"
     inkscape:current-layer="layer1"
     inkscape:document-rotation="0"
     showgrid="false"
     showguides="true"
     inkscape:guide-bbox="true"
     inkscape:lockguides="false"
     inkscape:window-width="1452"
     inkscape:window-height="1000"
     inkscape:window-x="224"
     inkscape:window-y="8"
     inkscape:window-maximized="0">
    <sodipodi:guide
       position="1.3063802,257.00244"
       orientation="0,-1"
       id="guide10793"
       inkscape:locked="false" />
    <sodipodi:guide
       position="3.0284978,217.00205"
       orientation="0,-1"
       id="guide10795" />
    <sodipodi:guide
       position="-3.9966553,197.00094"
       orientation="0,-1"
       id="guide10797" />
    <sodipodi:guide
       position="39.999626,295.37219"
       orientation="1,0"
       id="guide10799" />
    <sodipodi:guide
       position="60.000472,298.25677"
       orientation="1,0"
       id="guide10801" />
    <sodipodi:guide
       position="79.999251,267.64365"
       orientation="1,0"
       id="guide10803" />
    <sodipodi:guide
       position="99.999064,327.92628"
       orientation="1,0"
       id="guide10805" />
    <sodipodi:guide
       position="119.99991,333.61689"
       orientation="1,0"
       id="guide10807" />
    <sodipodi:guide
       position="139.99766,262.47601"
       orientation="1,0"
       id="guide10809" />
    <sodipodi:guide
       position="34.991145,257.00245"
       orientation="1,0"
       id="guide11492" />
    <sodipodi:guide
       position="39.999626,262.00059"
       orientation="0,-1"
       id="guide11494" />
    <sodipodi:guide
       position="36.861833,212.00054"
       orientation="0,-1"
       id="guide11496" />
    <sodipodi:guide
       position="104.99824,248.18438"
       orientation="1,0"
       id="guide11498" />
    <sodipodi:guide
       position="37.499583,261.33623"
       orientation="1,0"
       id="guide256" />
    <sodipodi:guide
       position="35.739782,214.49975"
       orientation="0,-1"
       id="guide258" />
    <sodipodi:guide
       position="102.5012,257.00245"
       orientation="1,0"
       id="guide275" />
    <sodipodi:guide
       position="39.999625,191.9935"
       orientation="0,-1"
       id="guide307" />
    <sodipodi:guide
       position="39.999625,146.98126"
       orientation="0,-1"
       id="guide339" />
    <sodipodi:guide
       position="38.959894,152.00834"
       orientation="0,-1"
       id="guide341" />
  </sodipodi:namedview>
  <metadata
     id="metadata9903">
    <rdf:RDF>
      <cc:Work
         rdf:about="">
        <dc:format>image/svg+xml</dc:format>
        <dc:type
           rdf:resource="http://purl.org/dc/dcmitype/StillImage" />
        <dc:title>macropad 3x2 with rotary encoder</dc:title>
      </cc:Work>
    </rdf:RDF>
  </metadata>
  <g
     inkscape:label="Warstwa 1"
     inkscape:groupmode="layer"
     id="layer1">
    <path
       d="m 77.309483,52.022461 c 0,0 -0.8114,0 -0.8114,0"
       style="fill:none;stroke:#333333;stroke-width:0.132292"
       id="path875-5" />
    <path
       d="m 76.498083,55.51636 c 0,0 0.8114,0 0.8114,0"
       style="fill:none;stroke:#333333;stroke-width:0.132292"
       id="path877-2" />
    <path
       d="m 61.741593,47.02246 c 0,0 0,-3.493899 0,-3.493899"
       style="fill:none;stroke:#333333;stroke-width:0.132292"
       id="path879-6" />
    <path
       d="m 62.552983,52.022461 c 0,0 0,-5.000001 0,-5.000001"
       style="fill:none;stroke:#333333;stroke-width:0.132292"
       id="path881-9" />
    <path
       d="m 61.741593,55.51636 c 0,0 0,-3.493899 0,-3.493899"
       style="fill:none;stroke:#333333;stroke-width:0.132292"
       id="path883-0" />
    <path
       d="m 62.552983,56.49506 c 0,0 0,-0.9787 0,-0.9787"
       style="fill:none;stroke:#333333;stroke-width:0.132292"
       id="path885-8" />
    <path
       d="m 77.309483,52.022461 c 0,0 0,3.493899 0,3.493899"
       style="fill:none;stroke:#333333;stroke-width:0.132292"
       id="path887-3" />
    <path
       d="m 76.498083,47.02246 c 0,0 0,5.000001 0,5.000001"
       style="fill:none;stroke:#333333;stroke-width:0.132292"
       id="path889-7" />
    <path
       d="m 62.552983,42.549862 c 0,0 13.9451,0 13.9451,0"
       style="fill:none;stroke:#333333;stroke-width:0.132292"
       id="path891-0" />
    <path
       d="m 62.552983,43.528561 c 0,0 0,-0.978699 0,-0.978699"
       style="fill:none;stroke:#333333;stroke-width:0.132292"
       id="path893-3" />
    <path
       d="m 61.741593,43.528561 c 0,0 0.81139,0 0.81139,0"
       style="fill:none;stroke:#333333;stroke-width:0.132292"
       id="path895-4" />
    <path
       d="m 62.552983,47.02246 c 0,0 -0.81139,0 -0.81139,0"
       style="fill:none;stroke:#333333;stroke-width:0.132292"
       id="path897-8" />
    <path
       d="m 61.741593,52.022461 c 0,0 0.81139,0 0.81139,0"
       style="fill:none;stroke:#333333;stroke-width:0.132292"
       id="path899-2" />
    <path
       d="m 62.552983,55.51636 c 0,0 -0.81139,0 -0.81139,0"
       style="fill:none;stroke:#333333;stroke-width:0.132292"
       id="path901-9" />
    <path
       d="m 76.498083,56.49506 c 0,0 -13.9451,0 -13.9451,0"
       style="fill:none;stroke:#333333;stroke-width:0.132292"
       id="path903-7" />
    <path
       d="m 76.498083,55.51636 c 0,0 0,0.9787 0,0.9787"
       style="fill:none;stroke:#333333;stroke-width:0.132292"
       id="path905-5" />
    <path
       d="m 77.309483,43.528561 c 0,0 0,3.493899 0,3.493899"
       style="fill:none;stroke:#333333;stroke-width:0.132292"
       id="path907-4" />
    <path
       d="m 76.498083,43.528561 c 0,0 0,-0.978699 0,-0.978699"
       style="fill:none;stroke:#333333;stroke-width:0.132292"
       id="path909-6" />
    <path
       d="m 77.309483,43.528561 c 0,0 -0.8114,0 -0.8114,0"
       style="fill:none;stroke:#333333;stroke-width:0.132292"
       id="path911-8" />
    <path
       d="m 76.498083,47.02246 c 0,0 0.8114,0 0.8114,0"
       style="fill:none;stroke:#333333;stroke-width:0.132292"
       id="path913-5" />
    <path
       d="m 97.308262,52.022461 c 0,0 -0.8114,0 -0.8114,0"
       style="fill:none;stroke:#333333;stroke-width:0.132292"
       id="path875-1" />
    <path
       d="m 96.496862,55.51636 c 0,0 0.8114,0 0.8114,0"
       style="fill:none;stroke:#333333;stroke-width:0.132292"
       id="path877-7" />
    <path
       d="m 81.740372,47.02246 c 0,0 0,-3.493899 0,-3.493899"
       style="fill:none;stroke:#333333;stroke-width:0.132292"
       id="path879-1" />
    <path
       d="m 82.551762,52.022461 c 0,0 0,-5.000001 0,-5.000001"
       style="fill:none;stroke:#333333;stroke-width:0.132292"
       id="path881-2" />
    <path
       d="m 81.740372,55.51636 c 0,0 0,-3.493899 0,-3.493899"
       style="fill:none;stroke:#333333;stroke-width:0.132292"
       id="path883-4" />
    <path
       d="m 82.551762,56.49506 c 0,0 0,-0.9787 0,-0.9787"
       style="fill:none;stroke:#333333;stroke-width:0.132292"
       id="path885-9" />
    <path
       d="m 97.308262,52.022461 c 0,0 0,3.493899 0,3.493899"
       style="fill:none;stroke:#333333;stroke-width:0.132292"
       id="path887-5" />
    <path
       d="m 96.496862,47.02246 c 0,0 0,5.000001 0,5.000001"
       style="fill:none;stroke:#333333;stroke-width:0.132292"
       id="path889-4" />
    <path
       d="m 82.551762,42.549862 c 0,0 13.9451,0 13.9451,0"
       style="fill:none;stroke:#333333;stroke-width:0.132292"
       id="path891-1" />
    <path
       d="m 82.551762,43.528561 c 0,0 0,-0.978699 0,-0.978699"
       style="fill:none;stroke:#333333;stroke-width:0.132292"
       id="path893-9" />
    <path
       d="m 81.740372,43.528561 c 0,0 0.81139,0 0.81139,0"
       style="fill:none;stroke:#333333;stroke-width:0.132292"
       id="path895-5" />
    <path
       d="m 82.551762,47.02246 c 0,0 -0.81139,0 -0.81139,0"
       style="fill:none;stroke:#333333;stroke-width:0.132292"
       id="path897-0" />
    <path
       d="m 81.740372,52.022461 c 0,0 0.81139,0 0.81139,0"
       style="fill:none;stroke:#333333;stroke-width:0.132292"
       id="path899-7" />
    <path
       d="m 82.551762,55.51636 c 0,0 -0.81139,0 -0.81139,0"
       style="fill:none;stroke:#333333;stroke-width:0.132292"
       id="path901-4" />
    <path
       d="m 96.496862,56.49506 c 0,0 -13.9451,0 -13.9451,0"
       style="fill:none;stroke:#333333;stroke-width:0.132292"
       id="path903-1" />
    <path
       d="m 96.496862,55.51636 c 0,0 0,0.9787 0,0.9787"
       style="fill:none;stroke:#333333;stroke-width:0.132292"
       id="path905-3" />
    <path
       d="m 97.308262,43.528561 c 0,0 0,3.493899 0,3.493899"
       style="fill:none;stroke:#333333;stroke-width:0.132292"
       id="path907-5" />
    <path
       d="m 96.496862,43.528561 c 0,0 0,-0.978699 0,-0.978699"
       style="fill:none;stroke:#333333;stroke-width:0.132292"
       id="path909-0" />
    <path
       d="m 97.308262,43.528561 c 0,0 -0.8114,0 -0.8114,0"
       style="fill:none;stroke:#333333;stroke-width:0.132292"
       id="path911-1" />
    <path
       d="m 96.496862,47.02246 c 0,0 0.8114,0 0.8114,0"
       style="fill:none;stroke:#333333;stroke-width:0.132292"
       id="path913-2" />
    <path
       d="m 57.308637,72.024341 c 0,0 -0.8114,0 -0.8114,0"
       style="fill:none;stroke:#333333;stroke-width:0.132292"
       id="path875-3" />
    <path
       d="m 56.497237,75.51824 c 0,0 0.8114,0 0.8114,0"
       style="fill:none;stroke:#333333;stroke-width:0.132292"
       id="path877-0" />
    <path
       d="m 41.740747,67.02434 c 0,0 0,-3.493899 0,-3.493899"
       style="fill:none;stroke:#333333;stroke-width:0.132292"
       id="path879-2" />
    <path
       d="m 42.552137,72.024341 c 0,0 0,-5.000001 0,-5.000001"
       style="fill:none;stroke:#333333;stroke-width:0.132292"
       id="path881-4" />
    <path
       d="m 41.740747,75.51824 c 0,0 0,-3.493899 0,-3.493899"
       style="fill:none;stroke:#333333;stroke-width:0.132292"
       id="path883-1" />
    <path
       d="m 42.552137,76.49694 c 0,0 0,-0.9787 0,-0.9787"
       style="fill:none;stroke:#333333;stroke-width:0.132292"
       id="path885-5" />
    <path
       d="m 57.308637,72.024341 c 0,0 0,3.493899 0,3.493899"
       style="fill:none;stroke:#333333;stroke-width:0.132292"
       id="path887-58" />
    <path
       d="m 56.497237,67.02434 c 0,0 0,5.000001 0,5.000001"
       style="fill:none;stroke:#333333;stroke-width:0.132292"
       id="path889-3" />
    <path
       d="m 42.552137,62.551742 c 0,0 13.9451,0 13.9451,0"
       style="fill:none;stroke:#333333;stroke-width:0.132292"
       id="path891-5" />
    <path
       d="m 42.552137,63.530441 c 0,0 0,-0.978699 0,-0.978699"
       style="fill:none;stroke:#333333;stroke-width:0.132292"
       id="path893-34" />
    <path
       d="m 41.740747,63.530441 c 0,0 0.81139,0 0.81139,0"
       style="fill:none;stroke:#333333;stroke-width:0.132292"
       id="path895-59" />
    <path
       d="m 42.552137,67.02434 c 0,0 -0.81139,0 -0.81139,0"
       style="fill:none;stroke:#333333;stroke-width:0.132292"
       id="path897-06" />
    <path
       d="m 41.740747,72.024341 c 0,0 0.81139,0 0.81139,0"
       style="fill:none;stroke:#333333;stroke-width:0.132292"
       id="path899-0" />
    <path
       d="m 42.552137,75.51824 c 0,0 -0.81139,0 -0.81139,0"
       style="fill:none;stroke:#333333;stroke-width:0.132292"
       id="path901-1" />
    <path
       d="m 56.497237,76.49694 c 0,0 -13.9451,0 -13.9451,0"
       style="fill:none;stroke:#333333;stroke-width:0.132292"
       id="path903-5" />
    <path
       d="m 56.497237,75.51824 c 0,0 0,0.9787 0,0.9787"
       style="fill:none;stroke:#333333;stroke-width:0.132292"
       id="path905-6" />
    <path
       d="m 57.308637,63.530441 c 0,0 0,3.493899 0,3.493899"
       style="fill:none;stroke:#333333;stroke-width:0.132292"
       id="path907-9" />
    <path
       d="m 56.497237,63.530441 c 0,0 0,-0.978699 0,-0.978699"
       style="fill:none;stroke:#333333;stroke-width:0.132292"
       id="path909-8" />
    <path
       d="m 57.308637,63.530441 c 0,0 -0.8114,0 -0.8114,0"
       style="fill:none;stroke:#333333;stroke-width:0.132292"
       id="path911-3" />
    <path
       d="m 56.497237,67.02434 c 0,0 0.8114,0 0.8114,0"
       style="fill:none;stroke:#333333;stroke-width:0.132292"
       id="path913-8" />
    <path
       d="m 77.309483,72.024341 c 0,0 -0.8114,0 -0.8114,0"
       style="fill:none;stroke:#333333;stroke-width:0.132292"
       id="path875-0" />
    <path
       d="m 76.498083,75.51824 c 0,0 0.8114,0 0.8114,0"
       style="fill:none;stroke:#333333;stroke-width:0.132292"
       id="path877-5" />
    <path
       d="m 61.741593,67.02434 c 0,0 0,-3.493899 0,-3.493899"
       style="fill:none;stroke:#333333;stroke-width:0.132292"
       id="path879-64" />
    <path
       d="m 62.552983,72.024341 c 0,0 0,-5.000001 0,-5.000001"
       style="fill:none;stroke:#333333;stroke-width:0.132292"
       id="path881-3" />
    <path
       d="m 61.741593,75.51824 c 0,0 0,-3.493899 0,-3.493899"
       style="fill:none;stroke:#333333;stroke-width:0.132292"
       id="path883-5" />
    <path
       d="m 62.552983,76.49694 c 0,0 0,-0.9787 0,-0.9787"
       style="fill:none;stroke:#333333;stroke-width:0.132292"
       id="path885-93" />
    <path
       d="m 77.309483,72.024341 c 0,0 0,3.493899 0,3.493899"
       style="fill:none;stroke:#333333;stroke-width:0.132292"
       id="path887-9" />
    <path
       d="m 76.498083,67.02434 c 0,0 0,5.000001 0,5.000001"
       style="fill:none;stroke:#333333;stroke-width:0.132292"
       id="path889-1" />
    <path
       d="m 62.552983,62.551742 c 0,0 13.9451,0 13.9451,0"
       style="fill:none;stroke:#333333;stroke-width:0.132292"
       id="path891-4" />
    <path
       d="m 62.552983,63.530441 c 0,0 0,-0.978699 0,-0.978699"
       style="fill:none;stroke:#333333;stroke-width:0.132292"
       id="path893-4" />
    <path
       d="m 61.741593,63.530441 c 0,0 0.81139,0 0.81139,0"
       style="fill:none;stroke:#333333;stroke-width:0.132292"
       id="path895-2" />
    <path
       d="m 62.552983,67.02434 c 0,0 -0.81139,0 -0.81139,0"
       style="fill:none;stroke:#333333;stroke-width:0.132292"
       id="path897-2" />
    <path
       d="m 61.741593,72.024341 c 0,0 0.81139,0 0.81139,0"
       style="fill:none;stroke:#333333;stroke-width:0.132292"
       id="path899-00" />
    <path
       d="m 62.552983,75.51824 c 0,0 -0.81139,0 -0.81139,0"
       style="fill:none;stroke:#333333;stroke-width:0.132292"
       id="path901-93" />
    <path
       d="m 76.498083,76.49694 c 0,0 -13.9451,0 -13.9451,0"
       style="fill:none;stroke:#333333;stroke-width:0.132292"
       id="path903-6" />
    <path
       d="m 76.498083,75.51824 c 0,0 0,0.9787 0,0.9787"
       style="fill:none;stroke:#333333;stroke-width:0.132292"
       id="path905-39" />
    <path
       d="m 77.309483,63.530441 c 0,0 0,3.493899 0,3.493899"
       style="fill:none;stroke:#333333;stroke-width:0.132292"
       id="path907-2" />
    <path
       d="m 76.498083,63.530441 c 0,0 0,-0.978699 0,-0.978699"
       style="fill:none;stroke:#333333;stroke-width:0.132292"
       id="path909-02" />
    <path
       d="m 77.309483,63.530441 c 0,0 -0.8114,0 -0.8114,0"
       style="fill:none;stroke:#333333;stroke-width:0.132292"
       id="path911-0" />
    <path
       d="m 76.498083,67.02434 c 0,0 0.8114,0 0.8114,0"
       style="fill:none;stroke:#333333;stroke-width:0.132292"
       id="path913-7" />
    <path
       d="m 97.308262,72.024341 c 0,0 -0.8114,0 -0.8114,0"
       style="fill:none;stroke:#333333;stroke-width:0.132292"
       id="path875-11" />
    <path
       d="m 96.496862,75.51824 c 0,0 0.8114,0 0.8114,0"
       style="fill:none;stroke:#333333;stroke-width:0.132292"
       id="path877-52" />
    <path
       d="m 81.740372,67.02434 c 0,0 0,-3.493899 0,-3.493899"
       style="fill:none;stroke:#333333;stroke-width:0.132292"
       id="path879-61" />
    <path
       d="m 82.551762,72.024341 c 0,0 0,-5.000001 0,-5.000001"
       style="fill:none;stroke:#333333;stroke-width:0.132292"
       id="path881-47" />
    <path
       d="m 81.740372,75.51824 c 0,0 0,-3.493899 0,-3.493899"
       style="fill:none;stroke:#333333;stroke-width:0.132292"
       id="path883-47" />
    <path
       d="m 82.551762,76.49694 c 0,0 0,-0.9787 0,-0.9787"
       style="fill:none;stroke:#333333;stroke-width:0.132292"
       id="path885-2" />
    <path
       d="m 97.308262,72.024341 c 0,0 0,3.493899 0,3.493899"
       style="fill:none;stroke:#333333;stroke-width:0.132292"
       id="path887-93" />
    <path
       d="m 96.496862,67.02434 c 0,0 0,5.000001 0,5.000001"
       style="fill:none;stroke:#333333;stroke-width:0.132292"
       id="path889-0" />
    <path
       d="m 82.551762,62.551742 c 0,0 13.9451,0 13.9451,0"
       style="fill:none;stroke:#333333;stroke-width:0.132292"
       id="path891-8" />
    <path
       d="m 82.551762,63.530441 c 0,0 0,-0.978699 0,-0.978699"
       style="fill:none;stroke:#333333;stroke-width:0.132292"
       id="path893-1" />
    <path
       d="m 81.740372,63.530441 c 0,0 0.81139,0 0.81139,0"
       style="fill:none;stroke:#333333;stroke-width:0.132292"
       id="path895-3" />
    <path
       d="m 82.551762,67.02434 c 0,0 -0.81139,0 -0.81139,0"
       style="fill:none;stroke:#333333;stroke-width:0.132292"
       id="path897-9" />
    <path
       d="m 81.740372,72.024341 c 0,0 0.81139,0 0.81139,0"
       style="fill:none;stroke:#333333;stroke-width:0.132292"
       id="path899-1" />
    <path
       d="m 82.551762,75.51824 c 0,0 -0.81139,0 -0.81139,0"
       style="fill:none;stroke:#333333;stroke-width:0.132292"
       id="path901-3" />
    <path
       d="m 96.496862,76.49694 c 0,0 -13.9451,0 -13.9451,0"
       style="fill:none;stroke:#333333;stroke-width:0.132292"
       id="path903-14" />
    <path
       d="m 96.496862,75.51824 c 0,0 0,0.9787 0,0.9787"
       style="fill:none;stroke:#333333;stroke-width:0.132292"
       id="path905-2" />
    <path
       d="m 97.308262,63.530441 c 0,0 0,3.493899 0,3.493899"
       style="fill:none;stroke:#333333;stroke-width:0.132292"
       id="path907-1" />
    <path
       d="m 96.496862,63.530441 c 0,0 0,-0.978699 0,-0.978699"
       style="fill:none;stroke:#333333;stroke-width:0.132292"
       id="path909-7" />
    <path
       d="m 97.308262,63.530441 c 0,0 -0.8114,0 -0.8114,0"
       style="fill:none;stroke:#333333;stroke-width:0.132292"
       id="path911-9" />
    <path
       d="m 96.496862,67.02434 c 0,0 0.8114,0 0.8114,0"
       style="fill:none;stroke:#333333;stroke-width:0.132292"
       id="path913-59" />
    <rect
       style="fill:none;stroke:#000000;stroke-width:0.140897;stroke-linecap:round;stroke-linejoin:round;stroke-miterlimit:4;stroke-dasharray:none;stroke-opacity:1"
       id="rect11486"
       width="13.5"
       height="11.7"
       x="43"
       y="43.5"
       ry="0.21942887" />
    <rect
       style="fill:none;stroke:#000000;stroke-width:0.132;stroke-linecap:round;stroke-linejoin:round;stroke-miterlimit:4;stroke-dasharray:none;stroke-opacity:1"
       id="rect11500"
       width="70.007095"
       height="50.00005"
       x="34.991146"
       y="34.999409"
       rx="2.0000012"
       ry="2.0000012" />
    <rect
       style="fill:none;stroke:#000000;stroke-width:0.132;stroke-linecap:round;stroke-linejoin:round;stroke-miterlimit:4;stroke-dasharray:none;stroke-opacity:1"
       id="rect11500-9"
       width="70.007095"
       height="50.00005"
       x="34.991146"
       y="99.999062"
       rx="2.0000012"
       ry="2.0000012" />
    <circle
       style="fill:none;stroke:#000000;stroke-width:0.152677;stroke-linecap:round;stroke-linejoin:round"
       id="path254"
       cx="37.5"
       cy="37.5"
       r="1" />
    <circle
       style="fill:none;stroke:#000000;stroke-width:0.152677;stroke-linecap:round;stroke-linejoin:round"
       id="path254-4"
       cx="37.5"
       cy="82.5"
       r="1" />
    <circle
       style="fill:none;stroke:#000000;stroke-width:0.152677;stroke-linecap:round;stroke-linejoin:round"
       id="path254-2"
       cx="102.5"
       cy="37.5"
       r="1" />
    <circle
       style="fill:none;stroke:#000000;stroke-width:0.152677;stroke-linecap:round;stroke-linejoin:round"
       id="path254-2-2"
       cx="102.5"
       cy="82.5"
       r="1" />
    <circle
       style="fill:none;stroke:#000000;stroke-width:0.152677;stroke-linecap:round;stroke-linejoin:round"
       id="path254-8"
       cx="37.5"
       cy="102.5"
       r="1" />
    <circle
       style="fill:none;stroke:#000000;stroke-width:0.152677;stroke-linecap:round;stroke-linejoin:round"
       id="path254-8-1"
       cx="37.5"
       cy="147.5"
       r="1" />
    <circle
       style="fill:none;stroke:#000000;stroke-width:0.152677;stroke-linecap:round;stroke-linejoin:round"
       id="path254-8-1-5"
       cx="102.5"
       cy="147.5"
       r="1" />
    <circle
       style="fill:none;stroke:#000000;stroke-width:0.152677;stroke-linecap:round;stroke-linejoin:round"
       id="path254-8-1-5-1"
       cx="102.5"
       cy="102.5"
       r="1" />
  </g>
</svg>
