  0
SECTION
  2
HEADER
  9
$ACADVER
  1
AC1014
  9
$HANDSEED
  5
FFFF
  9
$MEASUREMENT
 70
     1
  0
ENDSEC
  0
SECTION
  2
TABLES
  0
TABLE
  2
VPORT
  5
8
330
0
100
AcDbSymbolTable
 70
     4
  0
VPORT
  5
2E
330
8
100
AcDbSymbolTableRecord
100
AcDbViewportTableRecord
  2
*ACTIVE
 70
     0
 10
0.0
 20
0.0
 11
1.0
 21
1.0
 12
210.0
 22
148.5
 13
0.0
 23
0.0
 14
10.0
 24
10.0
 15
10.0
 25
10.0
 16
0.0
 26
0.0
 36
1.0
 17
0.0
 27
0.0
 37
0.0
 40
341.0
 41
1.24
 42
50.0
 43
0.0
 44
0.0
 50
0.0
 51
0.0
 71
     0
 72
   100
 73
     1
 74
     3
 75
     0
 76
     0
 77
     0
 78
     0
  0
ENDTAB
  0
TABLE
  2
LTYPE
  5
5
330
0
100
AcDbSymbolTable
 70
     1
  0
LTYPE
  5
14
330
5
100
AcDbSymbolTableRecord
100
AcDbLinetypeTableRecord
  2
BYBLOCK
 70
     0
  3

 72
    65
 73
     0
 40
0.0
  0
LTYPE
  5
15
330
5
100
AcDbSymbolTableRecord
100
AcDbLinetypeTableRecord
  2
BYLAYER
 70
     0
  3

 72
    65
 73
     0
 40
0.0
  0
LTYPE
  5
16
330
5
100
AcDbSymbolTableRecord
100
AcDbLinetypeTableRecord
  2
CONTINUOUS
 70
     0
  3
Solid line
 72
    65
 73
     0
 40
0.0
  0
ENDTAB
  0
TABLE
  2
LAYER
  5
2
100
AcDbSymbolTable
 70
2
  0
LAYER
  5
50
100
AcDbSymbolTableRecord
100
AcDbLayerTableRecord
  2
0
 70
0
  6
CONTINUOUS
  0
LAYER
  5
51
100
AcDbSymbolTableRecord
100
AcDbLayerTableRecord
  2
Warstwa_1
 70
0
  6
CONTINUOUS
  0
ENDTAB
  0
TABLE
  2
STYLE
  5
3
330
0
100
AcDbSymbolTable
 70
     1
  0
STYLE
  5
11
330
3
100
AcDbSymbolTableRecord
100
AcDbTextStyleTableRecord
  2
STANDARD
 70
     0
 40
0.0
 41
1.0
 50
0.0
 71
     0
 42
2.5
  3
txt
  4

  0
ENDTAB
  0
TABLE
  2
VIEW
  5
6
330
0
100
AcDbSymbolTable
 70
     0
  0
ENDTAB
  0
TABLE
  2
UCS
  5
7
330
0
100
AcDbSymbolTable
 70
     0
  0
ENDTAB
  0
TABLE
  2
APPID
  5
9
330
0
100
AcDbSymbolTable
 70
     2
  0
APPID
  5
12
330
9
100
AcDbSymbolTableRecord
100
AcDbRegAppTableRecord
  2
ACAD
 70
     0
  0
ENDTAB
  0
TABLE
  2
DIMSTYLE
  5
A
330
0
100
AcDbSymbolTable
 70
     1
  0
DIMSTYLE
105
27
330
A
100
AcDbSymbolTableRecord
100
AcDbDimStyleTableRecord
  2
ISO-25
 70
     0
  3

  4

  5

  6

  7

 40
1.0
 41
2.5
 42
0.625
 43
3.75
 44
1.25
 45
0.0
 46
0.0
 47
0.0
 48
0.0
140
2.5
141
2.5
142
0.0
143
0.03937007874016
144
1.0
145
0.0
146
1.0
147
0.625
 71
     0
 72
     0
 73
     0
 74
     0
 75
     0
 76
     0
 77
     1
 78
     8
170
     0
171
     3
172
     1
173
     0
174
     0
175
     0
176
     0
177
     0
178
     0
270
     2
271
     2
272
     2
273
     2
274
     3
340
11
275
     0
280
     0
281
     0
282
     0
283
     0
284
     8
285
     0
286
     0
287
     3
288
     0
  0
ENDTAB
  0
TABLE
  2
BLOCK_RECORD
  5
1
330
0
100
AcDbSymbolTable
 70
     1
  0
BLOCK_RECORD
  5
1F
330
1
100
AcDbSymbolTableRecord
100
AcDbBlockTableRecord
  2
*MODEL_SPACE
  0
BLOCK_RECORD
  5
1B
330
1
100
AcDbSymbolTableRecord
100
AcDbBlockTableRecord
  2
*PAPER_SPACE
  0
ENDTAB
  0
ENDSEC
  0
SECTION
  2
BLOCKS
  0
BLOCK
  5
20
330
1F
100
AcDbEntity
  8
0
100
AcDbBlockBegin
  2
*MODEL_SPACE
 70
     0
 10
0.0
 20
0.0
 30
0.0
  3
*MODEL_SPACE
  1

  0
ENDBLK
  5
21
330
1F
100
AcDbEntity
  8
0
100
AcDbBlockEnd
  0
BLOCK
  5
1C
330
1B
100
AcDbEntity
 67
     1
  8
0
100
AcDbBlockBegin
  2
*PAPER_SPACE
  1

  0
ENDBLK
  5
1D
330
1B
100
AcDbEntity
 67
     1
  8
0
100
AcDbBlockEnd
  0
ENDSEC
  0
SECTION
  2
ENTITIES
  0
LWPOLYLINE
  5
100
100
AcDbEntity
  8
Warstwa_1
 62
1
100
AcDbPolyline
 90
2
 70
0
 10
57.308637
 20
224.975659
 30
0.0
 10
56.497237
 20
224.975659
 30
0.0
  0
LWPOLYLINE
  5
101
100
AcDbEntity
  8
Warstwa_1
 62
1
100
AcDbPolyline
 90
2
 70
0
 10
56.497237
 20
221.481760
 30
0.0
 10
57.308637
 20
221.481760
 30
0.0
  0
LWPOLYLINE
  5
102
100
AcDbEntity
  8
Warstwa_1
 62
1
100
AcDbPolyline
 90
2
 70
0
 10
41.740747
 20
229.975660
 30
0.0
 10
41.740747
 20
233.469559
 30
0.0
  0
LWPOLYLINE
  5
103
100
AcDbEntity
  8
Warstwa_1
 62
1
100
AcDbPolyline
 90
2
 70
0
 10
42.552137
 20
224.975659
 30
0.0
 10
42.552137
 20
229.975660
 30
0.0
  0
LWPOLYLINE
  5
104
100
AcDbEntity
  8
Warstwa_1
 62
1
100
AcDbPolyline
 90
2
 70
0
 10
41.740747
 20
221.481760
 30
0.0
 10
41.740747
 20
224.975659
 30
0.0
  0
LWPOLYLINE
  5
105
100
AcDbEntity
  8
Warstwa_1
 62
1
100
AcDbPolyline
 90
2
 70
0
 10
42.552137
 20
220.503060
 30
0.0
 10
42.552137
 20
221.481760
 30
0.0
  0
LWPOLYLINE
  5
106
100
AcDbEntity
  8
Warstwa_1
 62
1
100
AcDbPolyline
 90
2
 70
0
 10
57.308637
 20
224.975659
 30
0.0
 10
57.308637
 20
221.481760
 30
0.0
  0
LWPOLYLINE
  5
107
100
AcDbEntity
  8
Warstwa_1
 62
1
100
AcDbPolyline
 90
2
 70
0
 10
56.497237
 20
229.975660
 30
0.0
 10
56.497237
 20
224.975659
 30
0.0
  0
LWPOLYLINE
  5
108
100
AcDbEntity
  8
Warstwa_1
 62
1
100
AcDbPolyline
 90
2
 70
0
 10
42.552137
 20
234.448258
 30
0.0
 10
56.497237
 20
234.448258
 30
0.0
  0
LWPOLYLINE
  5
109
100
AcDbEntity
  8
Warstwa_1
 62
1
100
AcDbPolyline
 90
2
 70
0
 10
42.552137
 20
233.469559
 30
0.0
 10
42.552137
 20
234.448258
 30
0.0
  0
LWPOLYLINE
  5
10a
100
AcDbEntity
  8
Warstwa_1
 62
1
100
AcDbPolyline
 90
2
 70
0
 10
41.740747
 20
233.469559
 30
0.0
 10
42.552137
 20
233.469559
 30
0.0
  0
LWPOLYLINE
  5
10b
100
AcDbEntity
  8
Warstwa_1
 62
1
100
AcDbPolyline
 90
2
 70
0
 10
42.552137
 20
229.975660
 30
0.0
 10
41.740747
 20
229.975660
 30
0.0
  0
LWPOLYLINE
  5
10c
100
AcDbEntity
  8
Warstwa_1
 62
1
100
AcDbPolyline
 90
2
 70
0
 10
41.740747
 20
224.975659
 30
0.0
 10
42.552137
 20
224.975659
 30
0.0
  0
LWPOLYLINE
  5
10d
100
AcDbEntity
  8
Warstwa_1
 62
1
100
AcDbPolyline
 90
2
 70
0
 10
42.552137
 20
221.481760
 30
0.0
 10
41.740747
 20
221.481760
 30
0.0
  0
LWPOLYLINE
  5
10e
100
AcDbEntity
  8
Warstwa_1
 62
1
100
AcDbPolyline
 90
2
 70
0
 10
56.497237
 20
220.503060
 30
0.0
 10
42.552137
 20
220.503060
 30
0.0
  0
LWPOLYLINE
  5
10f
100
AcDbEntity
  8
Warstwa_1
 62
1
100
AcDbPolyline
 90
2
 70
0
 10
56.497237
 20
221.481760
 30
0.0
 10
56.497237
 20
220.503060
 30
0.0
  0
LWPOLYLINE
  5
110
100
AcDbEntity
  8
Warstwa_1
 62
1
100
AcDbPolyline
 90
2
 70
0
 10
57.308637
 20
233.469559
 30
0.0
 10
57.308637
 20
229.975660
 30
0.0
  0
LWPOLYLINE
  5
111
100
AcDbEntity
  8
Warstwa_1
 62
1
100
AcDbPolyline
 90
2
 70
0
 10
56.497237
 20
233.469559
 30
0.0
 10
56.497237
 20
234.448258
 30
0.0
  0
LWPOLYLINE
  5
112
100
AcDbEntity
  8
Warstwa_1
 62
1
100
AcDbPolyline
 90
2
 70
0
 10
57.308637
 20
233.469559
 30
0.0
 10
56.497237
 20
233.469559
 30
0.0
  0
LWPOLYLINE
  5
113
100
AcDbEntity
  8
Warstwa_1
 62
1
100
AcDbPolyline
 90
2
 70
0
 10
56.497237
 20
229.975660
 30
0.0
 10
57.308637
 20
229.975660
 30
0.0
  0
LWPOLYLINE
  5
114
100
AcDbEntity
  8
Warstwa_1
 62
1
100
AcDbPolyline
 90
2
 70
0
 10
77.309483
 20
224.975659
 30
0.0
 10
76.498083
 20
224.975659
 30
0.0
  0
LWPOLYLINE
  5
115
100
AcDbEntity
  8
Warstwa_1
 62
1
100
AcDbPolyline
 90
2
 70
0
 10
76.498083
 20
221.481760
 30
0.0
 10
77.309483
 20
221.481760
 30
0.0
  0
LWPOLYLINE
  5
116
100
AcDbEntity
  8
Warstwa_1
 62
1
100
AcDbPolyline
 90
2
 70
0
 10
61.741593
 20
229.975660
 30
0.0
 10
61.741593
 20
233.469559
 30
0.0
  0
LWPOLYLINE
  5
117
100
AcDbEntity
  8
Warstwa_1
 62
1
100
AcDbPolyline
 90
2
 70
0
 10
62.552983
 20
224.975659
 30
0.0
 10
62.552983
 20
229.975660
 30
0.0
  0
LWPOLYLINE
  5
118
100
AcDbEntity
  8
Warstwa_1
 62
1
100
AcDbPolyline
 90
2
 70
0
 10
61.741593
 20
221.481760
 30
0.0
 10
61.741593
 20
224.975659
 30
0.0
  0
LWPOLYLINE
  5
119
100
AcDbEntity
  8
Warstwa_1
 62
1
100
AcDbPolyline
 90
2
 70
0
 10
62.552983
 20
220.503060
 30
0.0
 10
62.552983
 20
221.481760
 30
0.0
  0
LWPOLYLINE
  5
11a
100
AcDbEntity
  8
Warstwa_1
 62
1
100
AcDbPolyline
 90
2
 70
0
 10
77.309483
 20
224.975659
 30
0.0
 10
77.309483
 20
221.481760
 30
0.0
  0
LWPOLYLINE
  5
11b
100
AcDbEntity
  8
Warstwa_1
 62
1
100
AcDbPolyline
 90
2
 70
0
 10
76.498083
 20
229.975660
 30
0.0
 10
76.498083
 20
224.975659
 30
0.0
  0
LWPOLYLINE
  5
11c
100
AcDbEntity
  8
Warstwa_1
 62
1
100
AcDbPolyline
 90
2
 70
0
 10
62.552983
 20
234.448258
 30
0.0
 10
76.498083
 20
234.448258
 30
0.0
  0
LWPOLYLINE
  5
11d
100
AcDbEntity
  8
Warstwa_1
 62
1
100
AcDbPolyline
 90
2
 70
0
 10
62.552983
 20
233.469559
 30
0.0
 10
62.552983
 20
234.448258
 30
0.0
  0
LWPOLYLINE
  5
11e
100
AcDbEntity
  8
Warstwa_1
 62
1
100
AcDbPolyline
 90
2
 70
0
 10
61.741593
 20
233.469559
 30
0.0
 10
62.552983
 20
233.469559
 30
0.0
  0
LWPOLYLINE
  5
11f
100
AcDbEntity
  8
Warstwa_1
 62
1
100
AcDbPolyline
 90
2
 70
0
 10
62.552983
 20
229.975660
 30
0.0
 10
61.741593
 20
229.975660
 30
0.0
  0
LWPOLYLINE
  5
120
100
AcDbEntity
  8
Warstwa_1
 62
1
100
AcDbPolyline
 90
2
 70
0
 10
61.741593
 20
224.975659
 30
0.0
 10
62.552983
 20
224.975659
 30
0.0
  0
LWPOLYLINE
  5
121
100
AcDbEntity
  8
Warstwa_1
 62
1
100
AcDbPolyline
 90
2
 70
0
 10
62.552983
 20
221.481760
 30
0.0
 10
61.741593
 20
221.481760
 30
0.0
  0
LWPOLYLINE
  5
122
100
AcDbEntity
  8
Warstwa_1
 62
1
100
AcDbPolyline
 90
2
 70
0
 10
76.498083
 20
220.503060
 30
0.0
 10
62.552983
 20
220.503060
 30
0.0
  0
LWPOLYLINE
  5
123
100
AcDbEntity
  8
Warstwa_1
 62
1
100
AcDbPolyline
 90
2
 70
0
 10
76.498083
 20
221.481760
 30
0.0
 10
76.498083
 20
220.503060
 30
0.0
  0
LWPOLYLINE
  5
124
100
AcDbEntity
  8
Warstwa_1
 62
1
100
AcDbPolyline
 90
2
 70
0
 10
77.309483
 20
233.469559
 30
0.0
 10
77.309483
 20
229.975660
 30
0.0
  0
LWPOLYLINE
  5
125
100
AcDbEntity
  8
Warstwa_1
 62
1
100
AcDbPolyline
 90
2
 70
0
 10
76.498083
 20
233.469559
 30
0.0
 10
76.498083
 20
234.448258
 30
0.0
  0
LWPOLYLINE
  5
126
100
AcDbEntity
  8
Warstwa_1
 62
1
100
AcDbPolyline
 90
2
 70
0
 10
77.309483
 20
233.469559
 30
0.0
 10
76.498083
 20
233.469559
 30
0.0
  0
LWPOLYLINE
  5
127
100
AcDbEntity
  8
Warstwa_1
 62
1
100
AcDbPolyline
 90
2
 70
0
 10
76.498083
 20
229.975660
 30
0.0
 10
77.309483
 20
229.975660
 30
0.0
  0
LWPOLYLINE
  5
128
100
AcDbEntity
  8
Warstwa_1
 62
1
100
AcDbPolyline
 90
2
 70
0
 10
97.308262
 20
224.975659
 30
0.0
 10
96.496862
 20
224.975659
 30
0.0
  0
LWPOLYLINE
  5
129
100
AcDbEntity
  8
Warstwa_1
 62
1
100
AcDbPolyline
 90
2
 70
0
 10
96.496862
 20
221.481760
 30
0.0
 10
97.308262
 20
221.481760
 30
0.0
  0
LWPOLYLINE
  5
12a
100
AcDbEntity
  8
Warstwa_1
 62
1
100
AcDbPolyline
 90
2
 70
0
 10
81.740372
 20
229.975660
 30
0.0
 10
81.740372
 20
233.469559
 30
0.0
  0
LWPOLYLINE
  5
12b
100
AcDbEntity
  8
Warstwa_1
 62
1
100
AcDbPolyline
 90
2
 70
0
 10
82.551762
 20
224.975659
 30
0.0
 10
82.551762
 20
229.975660
 30
0.0
  0
LWPOLYLINE
  5
12c
100
AcDbEntity
  8
Warstwa_1
 62
1
100
AcDbPolyline
 90
2
 70
0
 10
81.740372
 20
221.481760
 30
0.0
 10
81.740372
 20
224.975659
 30
0.0
  0
LWPOLYLINE
  5
12d
100
AcDbEntity
  8
Warstwa_1
 62
1
100
AcDbPolyline
 90
2
 70
0
 10
82.551762
 20
220.503060
 30
0.0
 10
82.551762
 20
221.481760
 30
0.0
  0
LWPOLYLINE
  5
12e
100
AcDbEntity
  8
Warstwa_1
 62
1
100
AcDbPolyline
 90
2
 70
0
 10
97.308262
 20
224.975659
 30
0.0
 10
97.308262
 20
221.481760
 30
0.0
  0
LWPOLYLINE
  5
12f
100
AcDbEntity
  8
Warstwa_1
 62
1
100
AcDbPolyline
 90
2
 70
0
 10
96.496862
 20
229.975660
 30
0.0
 10
96.496862
 20
224.975659
 30
0.0
  0
LWPOLYLINE
  5
130
100
AcDbEntity
  8
Warstwa_1
 62
1
100
AcDbPolyline
 90
2
 70
0
 10
82.551762
 20
234.448258
 30
0.0
 10
96.496862
 20
234.448258
 30
0.0
  0
LWPOLYLINE
  5
131
100
AcDbEntity
  8
Warstwa_1
 62
1
100
AcDbPolyline
 90
2
 70
0
 10
82.551762
 20
233.469559
 30
0.0
 10
82.551762
 20
234.448258
 30
0.0
  0
LWPOLYLINE
  5
132
100
AcDbEntity
  8
Warstwa_1
 62
1
100
AcDbPolyline
 90
2
 70
0
 10
81.740372
 20
233.469559
 30
0.0
 10
82.551762
 20
233.469559
 30
0.0
  0
LWPOLYLINE
  5
133
100
AcDbEntity
  8
Warstwa_1
 62
1
100
AcDbPolyline
 90
2
 70
0
 10
82.551762
 20
229.975660
 30
0.0
 10
81.740372
 20
229.975660
 30
0.0
  0
LWPOLYLINE
  5
134
100
AcDbEntity
  8
Warstwa_1
 62
1
100
AcDbPolyline
 90
2
 70
0
 10
81.740372
 20
224.975659
 30
0.0
 10
82.551762
 20
224.975659
 30
0.0
  0
LWPOLYLINE
  5
135
100
AcDbEntity
  8
Warstwa_1
 62
1
100
AcDbPolyline
 90
2
 70
0
 10
82.551762
 20
221.481760
 30
0.0
 10
81.740372
 20
221.481760
 30
0.0
  0
LWPOLYLINE
  5
136
100
AcDbEntity
  8
Warstwa_1
 62
1
100
AcDbPolyline
 90
2
 70
0
 10
96.496862
 20
220.503060
 30
0.0
 10
82.551762
 20
220.503060
 30
0.0
  0
LWPOLYLINE
  5
137
100
AcDbEntity
  8
Warstwa_1
 62
1
100
AcDbPolyline
 90
2
 70
0
 10
96.496862
 20
221.481760
 30
0.0
 10
96.496862
 20
220.503060
 30
0.0
  0
LWPOLYLINE
  5
138
100
AcDbEntity
  8
Warstwa_1
 62
1
100
AcDbPolyline
 90
2
 70
0
 10
97.308262
 20
233.469559
 30
0.0
 10
97.308262
 20
229.975660
 30
0.0
  0
LWPOLYLINE
  5
139
100
AcDbEntity
  8
Warstwa_1
 62
1
100
AcDbPolyline
 90
2
 70
0
 10
96.496862
 20
233.469559
 30
0.0
 10
96.496862
 20
234.448258
 30
0.0
  0
LWPOLYLINE
  5
13a
100
AcDbEntity
  8
Warstwa_1
 62
1
100
AcDbPolyline
 90
2
 70
0
 10
97.308262
 20
233.469559
 30
0.0
 10
96.496862
 20
233.469559
 30
0.0
  0
LWPOLYLINE
  5
13b
100
AcDbEntity
  8
Warstwa_1
 62
1
100
AcDbPolyline
 90
2
 70
0
 10
96.496862
 20
229.975660
 30
0.0
 10
97.308262
 20
229.975660
 30
0.0
  0
LWPOLYLINE
  5
13c
100
AcDbEntity
  8
Warstwa_1
 62
1
100
AcDbPolyline
 90
2
 70
0
 10
57.308637
 20
204.977149
 30
0.0
 10
56.497237
 20
204.977149
 30
0.0
  0
LWPOLYLINE
  5
13d
100
AcDbEntity
  8
Warstwa_1
 62
1
100
AcDbPolyline
 90
2
 70
0
 10
56.497237
 20
201.483250
 30
0.0
 10
57.308637
 20
201.483250
 30
0.0
  0
LWPOLYLINE
  5
13e
100
AcDbEntity
  8
Warstwa_1
 62
1
100
AcDbPolyline
 90
2
 70
0
 10
41.740747
 20
209.977150
 30
0.0
 10
41.740747
 20
213.471049
 30
0.0
  0
LWPOLYLINE
  5
13f
100
AcDbEntity
  8
Warstwa_1
 62
1
100
AcDbPolyline
 90
2
 70
0
 10
42.552137
 20
204.977149
 30
0.0
 10
42.552137
 20
209.977150
 30
0.0
  0
LWPOLYLINE
  5
140
100
AcDbEntity
  8
Warstwa_1
 62
1
100
AcDbPolyline
 90
2
 70
0
 10
41.740747
 20
201.483250
 30
0.0
 10
41.740747
 20
204.977149
 30
0.0
  0
LWPOLYLINE
  5
141
100
AcDbEntity
  8
Warstwa_1
 62
1
100
AcDbPolyline
 90
2
 70
0
 10
42.552137
 20
200.504550
 30
0.0
 10
42.552137
 20
201.483250
 30
0.0
  0
LWPOLYLINE
  5
142
100
AcDbEntity
  8
Warstwa_1
 62
1
100
AcDbPolyline
 90
2
 70
0
 10
57.308637
 20
204.977149
 30
0.0
 10
57.308637
 20
201.483250
 30
0.0
  0
LWPOLYLINE
  5
143
100
AcDbEntity
  8
Warstwa_1
 62
1
100
AcDbPolyline
 90
2
 70
0
 10
56.497237
 20
209.977150
 30
0.0
 10
56.497237
 20
204.977149
 30
0.0
  0
LWPOLYLINE
  5
144
100
AcDbEntity
  8
Warstwa_1
 62
1
100
AcDbPolyline
 90
2
 70
0
 10
42.552137
 20
214.449748
 30
0.0
 10
56.497237
 20
214.449748
 30
0.0
  0
LWPOLYLINE
  5
145
100
AcDbEntity
  8
Warstwa_1
 62
1
100
AcDbPolyline
 90
2
 70
0
 10
42.552137
 20
213.471049
 30
0.0
 10
42.552137
 20
214.449748
 30
0.0
  0
LWPOLYLINE
  5
146
100
AcDbEntity
  8
Warstwa_1
 62
1
100
AcDbPolyline
 90
2
 70
0
 10
41.740747
 20
213.471049
 30
0.0
 10
42.552137
 20
213.471049
 30
0.0
  0
LWPOLYLINE
  5
147
100
AcDbEntity
  8
Warstwa_1
 62
1
100
AcDbPolyline
 90
2
 70
0
 10
42.552137
 20
209.977150
 30
0.0
 10
41.740747
 20
209.977150
 30
0.0
  0
LWPOLYLINE
  5
148
100
AcDbEntity
  8
Warstwa_1
 62
1
100
AcDbPolyline
 90
2
 70
0
 10
41.740747
 20
204.977149
 30
0.0
 10
42.552137
 20
204.977149
 30
0.0
  0
LWPOLYLINE
  5
149
100
AcDbEntity
  8
Warstwa_1
 62
1
100
AcDbPolyline
 90
2
 70
0
 10
42.552137
 20
201.483250
 30
0.0
 10
41.740747
 20
201.483250
 30
0.0
  0
LWPOLYLINE
  5
14a
100
AcDbEntity
  8
Warstwa_1
 62
1
100
AcDbPolyline
 90
2
 70
0
 10
56.497237
 20
200.504550
 30
0.0
 10
42.552137
 20
200.504550
 30
0.0
  0
LWPOLYLINE
  5
14b
100
AcDbEntity
  8
Warstwa_1
 62
1
100
AcDbPolyline
 90
2
 70
0
 10
56.497237
 20
201.483250
 30
0.0
 10
56.497237
 20
200.504550
 30
0.0
  0
LWPOLYLINE
  5
14c
100
AcDbEntity
  8
Warstwa_1
 62
1
100
AcDbPolyline
 90
2
 70
0
 10
57.308637
 20
213.471049
 30
0.0
 10
57.308637
 20
209.977150
 30
0.0
  0
LWPOLYLINE
  5
14d
100
AcDbEntity
  8
Warstwa_1
 62
1
100
AcDbPolyline
 90
2
 70
0
 10
56.497237
 20
213.471049
 30
0.0
 10
56.497237
 20
214.449748
 30
0.0
  0
LWPOLYLINE
  5
14e
100
AcDbEntity
  8
Warstwa_1
 62
1
100
AcDbPolyline
 90
2
 70
0
 10
57.308637
 20
213.471049
 30
0.0
 10
56.497237
 20
213.471049
 30
0.0
  0
LWPOLYLINE
  5
14f
100
AcDbEntity
  8
Warstwa_1
 62
1
100
AcDbPolyline
 90
2
 70
0
 10
56.497237
 20
209.977150
 30
0.0
 10
57.308637
 20
209.977150
 30
0.0
  0
LWPOLYLINE
  5
150
100
AcDbEntity
  8
Warstwa_1
 62
1
100
AcDbPolyline
 90
2
 70
0
 10
77.309483
 20
204.977149
 30
0.0
 10
76.498083
 20
204.977149
 30
0.0
  0
LWPOLYLINE
  5
151
100
AcDbEntity
  8
Warstwa_1
 62
1
100
AcDbPolyline
 90
2
 70
0
 10
76.498083
 20
201.483250
 30
0.0
 10
77.309483
 20
201.483250
 30
0.0
  0
LWPOLYLINE
  5
152
100
AcDbEntity
  8
Warstwa_1
 62
1
100
AcDbPolyline
 90
2
 70
0
 10
61.741593
 20
209.977150
 30
0.0
 10
61.741593
 20
213.471049
 30
0.0
  0
LWPOLYLINE
  5
153
100
AcDbEntity
  8
Warstwa_1
 62
1
100
AcDbPolyline
 90
2
 70
0
 10
62.552983
 20
204.977149
 30
0.0
 10
62.552983
 20
209.977150
 30
0.0
  0
LWPOLYLINE
  5
154
100
AcDbEntity
  8
Warstwa_1
 62
1
100
AcDbPolyline
 90
2
 70
0
 10
61.741593
 20
201.483250
 30
0.0
 10
61.741593
 20
204.977149
 30
0.0
  0
LWPOLYLINE
  5
155
100
AcDbEntity
  8
Warstwa_1
 62
1
100
AcDbPolyline
 90
2
 70
0
 10
62.552983
 20
200.504553
 30
0.0
 10
62.552983
 20
201.483250
 30
0.0
  0
LWPOLYLINE
  5
156
100
AcDbEntity
  8
Warstwa_1
 62
1
100
AcDbPolyline
 90
2
 70
0
 10
77.309483
 20
204.977149
 30
0.0
 10
77.309483
 20
201.483250
 30
0.0
  0
LWPOLYLINE
  5
157
100
AcDbEntity
  8
Warstwa_1
 62
1
100
AcDbPolyline
 90
2
 70
0
 10
76.498083
 20
209.977150
 30
0.0
 10
76.498083
 20
204.977149
 30
0.0
  0
LWPOLYLINE
  5
158
100
AcDbEntity
  8
Warstwa_1
 62
1
100
AcDbPolyline
 90
2
 70
0
 10
62.552983
 20
214.449748
 30
0.0
 10
76.498083
 20
214.449748
 30
0.0
  0
LWPOLYLINE
  5
159
100
AcDbEntity
  8
Warstwa_1
 62
1
100
AcDbPolyline
 90
2
 70
0
 10
62.552983
 20
213.471049
 30
0.0
 10
62.552983
 20
214.449748
 30
0.0
  0
LWPOLYLINE
  5
15a
100
AcDbEntity
  8
Warstwa_1
 62
1
100
AcDbPolyline
 90
2
 70
0
 10
61.741593
 20
213.471049
 30
0.0
 10
62.552983
 20
213.471049
 30
0.0
  0
LWPOLYLINE
  5
15b
100
AcDbEntity
  8
Warstwa_1
 62
1
100
AcDbPolyline
 90
2
 70
0
 10
62.552983
 20
209.977150
 30
0.0
 10
61.741593
 20
209.977150
 30
0.0
  0
LWPOLYLINE
  5
15c
100
AcDbEntity
  8
Warstwa_1
 62
1
100
AcDbPolyline
 90
2
 70
0
 10
61.741593
 20
204.977149
 30
0.0
 10
62.552983
 20
204.977149
 30
0.0
  0
LWPOLYLINE
  5
15d
100
AcDbEntity
  8
Warstwa_1
 62
1
100
AcDbPolyline
 90
2
 70
0
 10
62.552983
 20
201.483250
 30
0.0
 10
61.741593
 20
201.483250
 30
0.0
  0
LWPOLYLINE
  5
15e
100
AcDbEntity
  8
Warstwa_1
 62
1
100
AcDbPolyline
 90
2
 70
0
 10
76.498083
 20
200.504553
 30
0.0
 10
62.552983
 20
200.504553
 30
0.0
  0
LWPOLYLINE
  5
15f
100
AcDbEntity
  8
Warstwa_1
 62
1
100
AcDbPolyline
 90
2
 70
0
 10
76.498083
 20
201.483250
 30
0.0
 10
76.498083
 20
200.504553
 30
0.0
  0
LWPOLYLINE
  5
160
100
AcDbEntity
  8
Warstwa_1
 62
1
100
AcDbPolyline
 90
2
 70
0
 10
77.309483
 20
213.471049
 30
0.0
 10
77.309483
 20
209.977150
 30
0.0
  0
LWPOLYLINE
  5
161
100
AcDbEntity
  8
Warstwa_1
 62
1
100
AcDbPolyline
 90
2
 70
0
 10
76.498083
 20
213.471049
 30
0.0
 10
76.498083
 20
214.449748
 30
0.0
  0
LWPOLYLINE
  5
162
100
AcDbEntity
  8
Warstwa_1
 62
1
100
AcDbPolyline
 90
2
 70
0
 10
77.309483
 20
213.471049
 30
0.0
 10
76.498083
 20
213.471049
 30
0.0
  0
LWPOLYLINE
  5
163
100
AcDbEntity
  8
Warstwa_1
 62
1
100
AcDbPolyline
 90
2
 70
0
 10
76.498083
 20
209.977150
 30
0.0
 10
77.309483
 20
209.977150
 30
0.0
  0
LWPOLYLINE
  5
164
100
AcDbEntity
  8
Warstwa_1
 62
1
100
AcDbPolyline
 90
2
 70
0
 10
97.308262
 20
204.977149
 30
0.0
 10
96.496862
 20
204.977149
 30
0.0
  0
LWPOLYLINE
  5
165
100
AcDbEntity
  8
Warstwa_1
 62
1
100
AcDbPolyline
 90
2
 70
0
 10
96.496862
 20
201.483250
 30
0.0
 10
97.308262
 20
201.483250
 30
0.0
  0
LWPOLYLINE
  5
166
100
AcDbEntity
  8
Warstwa_1
 62
1
100
AcDbPolyline
 90
2
 70
0
 10
81.740372
 20
209.977150
 30
0.0
 10
81.740372
 20
213.471049
 30
0.0
  0
LWPOLYLINE
  5
167
100
AcDbEntity
  8
Warstwa_1
 62
1
100
AcDbPolyline
 90
2
 70
0
 10
82.551762
 20
204.977149
 30
0.0
 10
82.551762
 20
209.977150
 30
0.0
  0
LWPOLYLINE
  5
168
100
AcDbEntity
  8
Warstwa_1
 62
1
100
AcDbPolyline
 90
2
 70
0
 10
81.740372
 20
201.483250
 30
0.0
 10
81.740372
 20
204.977149
 30
0.0
  0
LWPOLYLINE
  5
169
100
AcDbEntity
  8
Warstwa_1
 62
1
100
AcDbPolyline
 90
2
 70
0
 10
82.551762
 20
200.504553
 30
0.0
 10
82.551762
 20
201.483250
 30
0.0
  0
LWPOLYLINE
  5
16a
100
AcDbEntity
  8
Warstwa_1
 62
1
100
AcDbPolyline
 90
2
 70
0
 10
97.308262
 20
204.977149
 30
0.0
 10
97.308262
 20
201.483250
 30
0.0
  0
LWPOLYLINE
  5
16b
100
AcDbEntity
  8
Warstwa_1
 62
1
100
AcDbPolyline
 90
2
 70
0
 10
96.496862
 20
209.977150
 30
0.0
 10
96.496862
 20
204.977149
 30
0.0
  0
LWPOLYLINE
  5
16c
100
AcDbEntity
  8
Warstwa_1
 62
1
100
AcDbPolyline
 90
2
 70
0
 10
82.551762
 20
214.449748
 30
0.0
 10
96.496862
 20
214.449748
 30
0.0
  0
LWPOLYLINE
  5
16d
100
AcDbEntity
  8
Warstwa_1
 62
1
100
AcDbPolyline
 90
2
 70
0
 10
82.551762
 20
213.471049
 30
0.0
 10
82.551762
 20
214.449748
 30
0.0
  0
LWPOLYLINE
  5
16e
100
AcDbEntity
  8
Warstwa_1
 62
1
100
AcDbPolyline
 90
2
 70
0
 10
81.740372
 20
213.471049
 30
0.0
 10
82.551762
 20
213.471049
 30
0.0
  0
LWPOLYLINE
  5
16f
100
AcDbEntity
  8
Warstwa_1
 62
1
100
AcDbPolyline
 90
2
 70
0
 10
82.551762
 20
209.977150
 30
0.0
 10
81.740372
 20
209.977150
 30
0.0
  0
LWPOLYLINE
  5
170
100
AcDbEntity
  8
Warstwa_1
 62
1
100
AcDbPolyline
 90
2
 70
0
 10
81.740372
 20
204.977149
 30
0.0
 10
82.551762
 20
204.977149
 30
0.0
  0
LWPOLYLINE
  5
171
100
AcDbEntity
  8
Warstwa_1
 62
1
100
AcDbPolyline
 90
2
 70
0
 10
82.551762
 20
201.483250
 30
0.0
 10
81.740372
 20
201.483250
 30
0.0
  0
LWPOLYLINE
  5
172
100
AcDbEntity
  8
Warstwa_1
 62
1
100
AcDbPolyline
 90
2
 70
0
 10
96.496862
 20
200.504553
 30
0.0
 10
82.551762
 20
200.504553
 30
0.0
  0
LWPOLYLINE
  5
173
100
AcDbEntity
  8
Warstwa_1
 62
1
100
AcDbPolyline
 90
2
 70
0
 10
96.496862
 20
201.483250
 30
0.0
 10
96.496862
 20
200.504553
 30
0.0
  0
LWPOLYLINE
  5
174
100
AcDbEntity
  8
Warstwa_1
 62
1
100
AcDbPolyline
 90
2
 70
0
 10
97.308262
 20
213.471049
 30
0.0
 10
97.308262
 20
209.977150
 30
0.0
  0
LWPOLYLINE
  5
175
100
AcDbEntity
  8
Warstwa_1
 62
1
100
AcDbPolyline
 90
2
 70
0
 10
96.496862
 20
213.471049
 30
0.0
 10
96.496862
 20
214.449748
 30
0.0
  0
LWPOLYLINE
  5
176
100
AcDbEntity
  8
Warstwa_1
 62
1
100
AcDbPolyline
 90
2
 70
0
 10
97.308262
 20
213.471049
 30
0.0
 10
96.496862
 20
213.471049
 30
0.0
  0
LWPOLYLINE
  5
177
100
AcDbEntity
  8
Warstwa_1
 62
1
100
AcDbPolyline
 90
2
 70
0
 10
96.496862
 20
209.977150
 30
0.0
 10
97.308262
 20
209.977150
 30
0.0
  0
LWPOLYLINE
  5
178
100
AcDbEntity
  8
Warstwa_1
 62
1
100
AcDbPolyline
 90
2
 70
0
 10
117.308170
 20
204.977149
 30
0.0
 10
116.496770
 20
204.977149
 30
0.0
  0
LWPOLYLINE
  5
179
100
AcDbEntity
  8
Warstwa_1
 62
1
100
AcDbPolyline
 90
2
 70
0
 10
116.496770
 20
201.483250
 30
0.0
 10
117.308170
 20
201.483250
 30
0.0
  0
LWPOLYLINE
  5
17a
100
AcDbEntity
  8
Warstwa_1
 62
1
100
AcDbPolyline
 90
2
 70
0
 10
101.740190
 20
209.977150
 30
0.0
 10
101.740190
 20
213.471049
 30
0.0
  0
LWPOLYLINE
  5
17b
100
AcDbEntity
  8
Warstwa_1
 62
1
100
AcDbPolyline
 90
2
 70
0
 10
102.551590
 20
204.977149
 30
0.0
 10
102.551590
 20
209.977150
 30
0.0
  0
LWPOLYLINE
  5
17c
100
AcDbEntity
  8
Warstwa_1
 62
1
100
AcDbPolyline
 90
2
 70
0
 10
101.740190
 20
201.483250
 30
0.0
 10
101.740190
 20
204.977149
 30
0.0
  0
LWPOLYLINE
  5
17d
100
AcDbEntity
  8
Warstwa_1
 62
1
100
AcDbPolyline
 90
2
 70
0
 10
102.551590
 20
200.504553
 30
0.0
 10
102.551590
 20
201.483250
 30
0.0
  0
LWPOLYLINE
  5
17e
100
AcDbEntity
  8
Warstwa_1
 62
1
100
AcDbPolyline
 90
2
 70
0
 10
117.308170
 20
204.977149
 30
0.0
 10
117.308170
 20
201.483250
 30
0.0
  0
LWPOLYLINE
  5
17f
100
AcDbEntity
  8
Warstwa_1
 62
1
100
AcDbPolyline
 90
2
 70
0
 10
116.496770
 20
209.977150
 30
0.0
 10
116.496770
 20
204.977149
 30
0.0
  0
LWPOLYLINE
  5
180
100
AcDbEntity
  8
Warstwa_1
 62
1
100
AcDbPolyline
 90
2
 70
0
 10
102.551590
 20
214.449748
 30
0.0
 10
116.496770
 20
214.449748
 30
0.0
  0
LWPOLYLINE
  5
181
100
AcDbEntity
  8
Warstwa_1
 62
1
100
AcDbPolyline
 90
2
 70
0
 10
102.551590
 20
213.471049
 30
0.0
 10
102.551590
 20
214.449748
 30
0.0
  0
LWPOLYLINE
  5
182
100
AcDbEntity
  8
Warstwa_1
 62
1
100
AcDbPolyline
 90
2
 70
0
 10
101.740190
 20
213.471049
 30
0.0
 10
102.551590
 20
213.471049
 30
0.0
  0
LWPOLYLINE
  5
183
100
AcDbEntity
  8
Warstwa_1
 62
1
100
AcDbPolyline
 90
2
 70
0
 10
102.551590
 20
209.977150
 30
0.0
 10
101.740190
 20
209.977150
 30
0.0
  0
LWPOLYLINE
  5
184
100
AcDbEntity
  8
Warstwa_1
 62
1
100
AcDbPolyline
 90
2
 70
0
 10
101.740190
 20
204.977149
 30
0.0
 10
102.551590
 20
204.977149
 30
0.0
  0
LWPOLYLINE
  5
185
100
AcDbEntity
  8
Warstwa_1
 62
1
100
AcDbPolyline
 90
2
 70
0
 10
102.551590
 20
201.483250
 30
0.0
 10
101.740190
 20
201.483250
 30
0.0
  0
LWPOLYLINE
  5
186
100
AcDbEntity
  8
Warstwa_1
 62
1
100
AcDbPolyline
 90
2
 70
0
 10
116.496770
 20
200.504553
 30
0.0
 10
102.551590
 20
200.504553
 30
0.0
  0
LWPOLYLINE
  5
187
100
AcDbEntity
  8
Warstwa_1
 62
1
100
AcDbPolyline
 90
2
 70
0
 10
116.496770
 20
201.483250
 30
0.0
 10
116.496770
 20
200.504553
 30
0.0
  0
LWPOLYLINE
  5
188
100
AcDbEntity
  8
Warstwa_1
 62
1
100
AcDbPolyline
 90
2
 70
0
 10
117.308170
 20
213.471049
 30
0.0
 10
117.308170
 20
209.977150
 30
0.0
  0
LWPOLYLINE
  5
189
100
AcDbEntity
  8
Warstwa_1
 62
1
100
AcDbPolyline
 90
2
 70
0
 10
116.496770
 20
213.471049
 30
0.0
 10
116.496770
 20
214.449748
 30
0.0
  0
LWPOLYLINE
  5
18a
100
AcDbEntity
  8
Warstwa_1
 62
1
100
AcDbPolyline
 90
2
 70
0
 10
117.308170
 20
213.471049
 30
0.0
 10
116.496770
 20
213.471049
 30
0.0
  0
LWPOLYLINE
  5
18b
100
AcDbEntity
  8
Warstwa_1
 62
1
100
AcDbPolyline
 90
2
 70
0
 10
116.496770
 20
209.977150
 30
0.0
 10
117.308170
 20
209.977150
 30
0.0
  0
LWPOLYLINE
  5
18c
100
AcDbEntity
  8
Warstwa_1
 62
1
100
AcDbPolyline
 90
2
 70
0
 10
117.308170
 20
224.975659
 30
0.0
 10
116.496770
 20
224.975659
 30
0.0
  0
LWPOLYLINE
  5
18d
100
AcDbEntity
  8
Warstwa_1
 62
1
100
AcDbPolyline
 90
2
 70
0
 10
116.496770
 20
221.481760
 30
0.0
 10
117.308170
 20
221.481760
 30
0.0
  0
LWPOLYLINE
  5
18e
100
AcDbEntity
  8
Warstwa_1
 62
1
100
AcDbPolyline
 90
2
 70
0
 10
101.740190
 20
229.975660
 30
0.0
 10
101.740190
 20
233.469559
 30
0.0
  0
LWPOLYLINE
  5
18f
100
AcDbEntity
  8
Warstwa_1
 62
1
100
AcDbPolyline
 90
2
 70
0
 10
102.551590
 20
224.975659
 30
0.0
 10
102.551590
 20
229.975660
 30
0.0
  0
LWPOLYLINE
  5
190
100
AcDbEntity
  8
Warstwa_1
 62
1
100
AcDbPolyline
 90
2
 70
0
 10
101.740190
 20
221.481760
 30
0.0
 10
101.740190
 20
224.975659
 30
0.0
  0
LWPOLYLINE
  5
191
100
AcDbEntity
  8
Warstwa_1
 62
1
100
AcDbPolyline
 90
2
 70
0
 10
102.551590
 20
220.503063
 30
0.0
 10
102.551590
 20
221.481760
 30
0.0
  0
LWPOLYLINE
  5
192
100
AcDbEntity
  8
Warstwa_1
 62
1
100
AcDbPolyline
 90
2
 70
0
 10
117.308170
 20
224.975659
 30
0.0
 10
117.308170
 20
221.481760
 30
0.0
  0
LWPOLYLINE
  5
193
100
AcDbEntity
  8
Warstwa_1
 62
1
100
AcDbPolyline
 90
2
 70
0
 10
116.496770
 20
229.975660
 30
0.0
 10
116.496770
 20
224.975659
 30
0.0
  0
LWPOLYLINE
  5
194
100
AcDbEntity
  8
Warstwa_1
 62
1
100
AcDbPolyline
 90
2
 70
0
 10
102.551590
 20
234.448258
 30
0.0
 10
116.496770
 20
234.448258
 30
0.0
  0
LWPOLYLINE
  5
195
100
AcDbEntity
  8
Warstwa_1
 62
1
100
AcDbPolyline
 90
2
 70
0
 10
102.551590
 20
233.469559
 30
0.0
 10
102.551590
 20
234.448258
 30
0.0
  0
LWPOLYLINE
  5
196
100
AcDbEntity
  8
Warstwa_1
 62
1
100
AcDbPolyline
 90
2
 70
0
 10
101.740190
 20
233.469559
 30
0.0
 10
102.551590
 20
233.469559
 30
0.0
  0
LWPOLYLINE
  5
197
100
AcDbEntity
  8
Warstwa_1
 62
1
100
AcDbPolyline
 90
2
 70
0
 10
102.551590
 20
229.975660
 30
0.0
 10
101.740190
 20
229.975660
 30
0.0
  0
LWPOLYLINE
  5
198
100
AcDbEntity
  8
Warstwa_1
 62
1
100
AcDbPolyline
 90
2
 70
0
 10
101.740190
 20
224.975659
 30
0.0
 10
102.551590
 20
224.975659
 30
0.0
  0
LWPOLYLINE
  5
199
100
AcDbEntity
  8
Warstwa_1
 62
1
100
AcDbPolyline
 90
2
 70
0
 10
102.551590
 20
221.481760
 30
0.0
 10
101.740190
 20
221.481760
 30
0.0
  0
LWPOLYLINE
  5
19a
100
AcDbEntity
  8
Warstwa_1
 62
1
100
AcDbPolyline
 90
2
 70
0
 10
116.496770
 20
220.503063
 30
0.0
 10
102.551590
 20
220.503063
 30
0.0
  0
LWPOLYLINE
  5
19b
100
AcDbEntity
  8
Warstwa_1
 62
1
100
AcDbPolyline
 90
2
 70
0
 10
116.496770
 20
221.481760
 30
0.0
 10
116.496770
 20
220.503063
 30
0.0
  0
LWPOLYLINE
  5
19c
100
AcDbEntity
  8
Warstwa_1
 62
1
100
AcDbPolyline
 90
2
 70
0
 10
117.308170
 20
233.469559
 30
0.0
 10
117.308170
 20
229.975660
 30
0.0
  0
LWPOLYLINE
  5
19d
100
AcDbEntity
  8
Warstwa_1
 62
1
100
AcDbPolyline
 90
2
 70
0
 10
116.496770
 20
233.469559
 30
0.0
 10
116.496770
 20
234.448258
 30
0.0
  0
LWPOLYLINE
  5
19e
100
AcDbEntity
  8
Warstwa_1
 62
1
100
AcDbPolyline
 90
2
 70
0
 10
117.308170
 20
233.469559
 30
0.0
 10
116.496770
 20
233.469559
 30
0.0
  0
LWPOLYLINE
  5
19f
100
AcDbEntity
  8
Warstwa_1
 62
1
100
AcDbPolyline
 90
2
 70
0
 10
116.496770
 20
229.975660
 30
0.0
 10
117.308170
 20
229.975660
 30
0.0
  0
SPLINE
  5
1a0
100
AcDbEntity
  8
Warstwa_1
 62
7
100
AcDbSpline
 70
8
 71
3
 72
8
 73
4
 74
0
 40
0
 40
0
 40
0
 40
0
 40
1
 40
1
 40
1
 40
1
 10
56.280571
 20
253.500000
 30
0.0
 10
56.338767
 20
253.500000
 30
0.0
 10
56.394580
 20
253.476882
 30
0.0
 10
56.435731
 20
253.435731
 30
0.0
  0
SPLINE
  5
1a1
100
AcDbEntity
  8
Warstwa_1
 62
7
100
AcDbSpline
 70
8
 71
3
 72
8
 73
4
 74
0
 40
0
 40
0
 40
0
 40
0
 40
1
 40
1
 40
1
 40
1
 10
56.435731
 20
253.435731
 30
0.0
 10
56.476882
 20
253.394580
 30
0.0
 10
56.500000
 20
253.338767
 30
0.0
 10
56.500000
 20
253.280571
 30
0.0
  0
LWPOLYLINE
  5
1a2
100
AcDbEntity
  8
Warstwa_1
 62
7
100
AcDbPolyline
 90
2
 70
0
 10
43.219429
 20
253.500000
 30
0.0
 10
56.280571
 20
253.500000
 30
0.0
  0
SPLINE
  5
1a3
100
AcDbEntity
  8
Warstwa_1
 62
7
100
AcDbSpline
 70
8
 71
3
 72
8
 73
4
 74
0
 40
0
 40
0
 40
0
 40
0
 40
1
 40
1
 40
1
 40
1
 10
56.500000
 20
242.019429
 30
0.0
 10
56.500000
 20
241.961233
 30
0.0
 10
56.476882
 20
241.905420
 30
0.0
 10
56.435731
 20
241.864269
 30
0.0
  0
SPLINE
  5
1a4
100
AcDbEntity
  8
Warstwa_1
 62
7
100
AcDbSpline
 70
8
 71
3
 72
8
 73
4
 74
0
 40
0
 40
0
 40
0
 40
0
 40
1
 40
1
 40
1
 40
1
 10
56.435731
 20
241.864269
 30
0.0
 10
56.394580
 20
241.823118
 30
0.0
 10
56.338767
 20
241.800000
 30
0.0
 10
56.280571
 20
241.800000
 30
0.0
  0
LWPOLYLINE
  5
1a5
100
AcDbEntity
  8
Warstwa_1
 62
7
100
AcDbPolyline
 90
2
 70
0
 10
56.500000
 20
253.280571
 30
0.0
 10
56.500000
 20
242.019429
 30
0.0
  0
SPLINE
  5
1a6
100
AcDbEntity
  8
Warstwa_1
 62
7
100
AcDbSpline
 70
8
 71
3
 72
8
 73
4
 74
0
 40
0
 40
0
 40
0
 40
0
 40
1
 40
1
 40
1
 40
1
 10
43.219429
 20
241.800000
 30
0.0
 10
43.161233
 20
241.800000
 30
0.0
 10
43.105420
 20
241.823118
 30
0.0
 10
43.064269
 20
241.864269
 30
0.0
  0
SPLINE
  5
1a7
100
AcDbEntity
  8
Warstwa_1
 62
7
100
AcDbSpline
 70
8
 71
3
 72
8
 73
4
 74
0
 40
0
 40
0
 40
0
 40
0
 40
1
 40
1
 40
1
 40
1
 10
43.064269
 20
241.864269
 30
0.0
 10
43.023118
 20
241.905420
 30
0.0
 10
43.000000
 20
241.961233
 30
0.0
 10
43.000000
 20
242.019429
 30
0.0
  0
LWPOLYLINE
  5
1a8
100
AcDbEntity
  8
Warstwa_1
 62
7
100
AcDbPolyline
 90
2
 70
0
 10
56.280571
 20
241.800000
 30
0.0
 10
43.219429
 20
241.800000
 30
0.0
  0
SPLINE
  5
1a9
100
AcDbEntity
  8
Warstwa_1
 62
7
100
AcDbSpline
 70
8
 71
3
 72
8
 73
4
 74
0
 40
0
 40
0
 40
0
 40
0
 40
1
 40
1
 40
1
 40
1
 10
43.000000
 20
253.280571
 30
0.0
 10
43.000000
 20
253.338767
 30
0.0
 10
43.023118
 20
253.394580
 30
0.0
 10
43.064269
 20
253.435731
 30
0.0
  0
SPLINE
  5
1aa
100
AcDbEntity
  8
Warstwa_1
 62
7
100
AcDbSpline
 70
8
 71
3
 72
8
 73
4
 74
0
 40
0
 40
0
 40
0
 40
0
 40
1
 40
1
 40
1
 40
1
 10
43.064269
 20
253.435731
 30
0.0
 10
43.105420
 20
253.476882
 30
0.0
 10
43.161233
 20
253.500000
 30
0.0
 10
43.219429
 20
253.500000
 30
0.0
  0
LWPOLYLINE
  5
1ab
100
AcDbEntity
  8
Warstwa_1
 62
7
100
AcDbPolyline
 90
2
 70
0
 10
43.000000
 20
242.019429
 30
0.0
 10
43.000000
 20
253.280571
 30
0.0
  0
LWPOLYLINE
  5
1ac
100
AcDbEntity
  8
Warstwa_1
 62
7
100
AcDbPolyline
 90
1
 70
1
 10
43.219429
 20
253.500000
 30
0.0
  0
SPLINE
  5
1ad
100
AcDbEntity
  8
Warstwa_1
 62
7
100
AcDbSpline
 70
8
 71
3
 72
8
 73
4
 74
0
 40
0
 40
0
 40
0
 40
0
 40
1
 40
1
 40
1
 40
1
 10
76.280571
 20
253.500000
 30
0.0
 10
76.338767
 20
253.500000
 30
0.0
 10
76.394580
 20
253.476882
 30
0.0
 10
76.435731
 20
253.435731
 30
0.0
  0
SPLINE
  5
1ae
100
AcDbEntity
  8
Warstwa_1
 62
7
100
AcDbSpline
 70
8
 71
3
 72
8
 73
4
 74
0
 40
0
 40
0
 40
0
 40
0
 40
1
 40
1
 40
1
 40
1
 10
76.435731
 20
253.435731
 30
0.0
 10
76.476882
 20
253.394580
 30
0.0
 10
76.500000
 20
253.338767
 30
0.0
 10
76.500000
 20
253.280571
 30
0.0
  0
LWPOLYLINE
  5
1af
100
AcDbEntity
  8
Warstwa_1
 62
7
100
AcDbPolyline
 90
2
 70
0
 10
63.219429
 20
253.500000
 30
0.0
 10
76.280571
 20
253.500000
 30
0.0
  0
SPLINE
  5
1b0
100
AcDbEntity
  8
Warstwa_1
 62
7
100
AcDbSpline
 70
8
 71
3
 72
8
 73
4
 74
0
 40
0
 40
0
 40
0
 40
0
 40
1
 40
1
 40
1
 40
1
 10
76.500000
 20
242.019429
 30
0.0
 10
76.500000
 20
241.961233
 30
0.0
 10
76.476882
 20
241.905420
 30
0.0
 10
76.435731
 20
241.864269
 30
0.0
  0
SPLINE
  5
1b1
100
AcDbEntity
  8
Warstwa_1
 62
7
100
AcDbSpline
 70
8
 71
3
 72
8
 73
4
 74
0
 40
0
 40
0
 40
0
 40
0
 40
1
 40
1
 40
1
 40
1
 10
76.435731
 20
241.864269
 30
0.0
 10
76.394580
 20
241.823118
 30
0.0
 10
76.338767
 20
241.800000
 30
0.0
 10
76.280571
 20
241.800000
 30
0.0
  0
LWPOLYLINE
  5
1b2
100
AcDbEntity
  8
Warstwa_1
 62
7
100
AcDbPolyline
 90
2
 70
0
 10
76.500000
 20
253.280571
 30
0.0
 10
76.500000
 20
242.019429
 30
0.0
  0
SPLINE
  5
1b3
100
AcDbEntity
  8
Warstwa_1
 62
7
100
AcDbSpline
 70
8
 71
3
 72
8
 73
4
 74
0
 40
0
 40
0
 40
0
 40
0
 40
1
 40
1
 40
1
 40
1
 10
63.219429
 20
241.800000
 30
0.0
 10
63.161233
 20
241.800000
 30
0.0
 10
63.105420
 20
241.823118
 30
0.0
 10
63.064269
 20
241.864269
 30
0.0
  0
SPLINE
  5
1b4
100
AcDbEntity
  8
Warstwa_1
 62
7
100
AcDbSpline
 70
8
 71
3
 72
8
 73
4
 74
0
 40
0
 40
0
 40
0
 40
0
 40
1
 40
1
 40
1
 40
1
 10
63.064269
 20
241.864269
 30
0.0
 10
63.023118
 20
241.905420
 30
0.0
 10
63.000000
 20
241.961233
 30
0.0
 10
63.000000
 20
242.019429
 30
0.0
  0
LWPOLYLINE
  5
1b5
100
AcDbEntity
  8
Warstwa_1
 62
7
100
AcDbPolyline
 90
2
 70
0
 10
76.280571
 20
241.800000
 30
0.0
 10
63.219429
 20
241.800000
 30
0.0
  0
SPLINE
  5
1b6
100
AcDbEntity
  8
Warstwa_1
 62
7
100
AcDbSpline
 70
8
 71
3
 72
8
 73
4
 74
0
 40
0
 40
0
 40
0
 40
0
 40
1
 40
1
 40
1
 40
1
 10
63.000000
 20
253.280571
 30
0.0
 10
63.000000
 20
253.338767
 30
0.0
 10
63.023118
 20
253.394580
 30
0.0
 10
63.064269
 20
253.435731
 30
0.0
  0
SPLINE
  5
1b7
100
AcDbEntity
  8
Warstwa_1
 62
7
100
AcDbSpline
 70
8
 71
3
 72
8
 73
4
 74
0
 40
0
 40
0
 40
0
 40
0
 40
1
 40
1
 40
1
 40
1
 10
63.064269
 20
253.435731
 30
0.0
 10
63.105420
 20
253.476882
 30
0.0
 10
63.161233
 20
253.500000
 30
0.0
 10
63.219429
 20
253.500000
 30
0.0
  0
LWPOLYLINE
  5
1b8
100
AcDbEntity
  8
Warstwa_1
 62
7
100
AcDbPolyline
 90
2
 70
0
 10
63.000000
 20
242.019429
 30
0.0
 10
63.000000
 20
253.280571
 30
0.0
  0
LWPOLYLINE
  5
1b9
100
AcDbEntity
  8
Warstwa_1
 62
7
100
AcDbPolyline
 90
1
 70
1
 10
63.219429
 20
253.500000
 30
0.0
  0
SPLINE
  5
1ba
100
AcDbEntity
  8
Warstwa_1
 62
7
100
AcDbSpline
 70
8
 71
3
 72
8
 73
4
 74
0
 40
0
 40
0
 40
0
 40
0
 40
1
 40
1
 40
1
 40
1
 10
122.999084
 20
262.000591
 30
0.0
 10
123.529517
 20
262.000591
 30
0.0
 10
124.038225
 20
261.789877
 30
0.0
 10
124.413298
 20
261.414804
 30
0.0
  0
SPLINE
  5
1bb
100
AcDbEntity
  8
Warstwa_1
 62
7
100
AcDbSpline
 70
8
 71
3
 72
8
 73
4
 74
0
 40
0
 40
0
 40
0
 40
0
 40
1
 40
1
 40
1
 40
1
 10
124.413298
 20
261.414804
 30
0.0
 10
124.788371
 20
261.039731
 30
0.0
 10
124.999085
 20
260.531023
 30
0.0
 10
124.999085
 20
260.000590
 30
0.0
  0
LWPOLYLINE
  5
1bc
100
AcDbEntity
  8
Warstwa_1
 62
7
100
AcDbPolyline
 90
2
 70
0
 10
36.999414
 20
262.000591
 30
0.0
 10
122.999084
 20
262.000591
 30
0.0
  0
SPLINE
  5
1bd
100
AcDbEntity
  8
Warstwa_1
 62
7
100
AcDbSpline
 70
8
 71
3
 72
8
 73
4
 74
0
 40
0
 40
0
 40
0
 40
0
 40
1
 40
1
 40
1
 40
1
 10
124.999085
 20
193.999692
 30
0.0
 10
124.999085
 20
193.469259
 30
0.0
 10
124.788371
 20
192.960551
 30
0.0
 10
124.413298
 20
192.585478
 30
0.0
  0
SPLINE
  5
1be
100
AcDbEntity
  8
Warstwa_1
 62
7
100
AcDbSpline
 70
8
 71
3
 72
8
 73
4
 74
0
 40
0
 40
0
 40
0
 40
0
 40
1
 40
1
 40
1
 40
1
 10
124.413298
 20
192.585478
 30
0.0
 10
124.038225
 20
192.210405
 30
0.0
 10
123.529517
 20
191.999691
 30
0.0
 10
122.999084
 20
191.999691
 30
0.0
  0
LWPOLYLINE
  5
1bf
100
AcDbEntity
  8
Warstwa_1
 62
7
100
AcDbPolyline
 90
2
 70
0
 10
124.999085
 20
260.000590
 30
0.0
 10
124.999085
 20
193.999692
 30
0.0
  0
SPLINE
  5
1c0
100
AcDbEntity
  8
Warstwa_1
 62
7
100
AcDbSpline
 70
8
 71
3
 72
8
 73
4
 74
0
 40
0
 40
0
 40
0
 40
0
 40
1
 40
1
 40
1
 40
1
 10
36.999414
 20
191.999691
 30
0.0
 10
36.468981
 20
191.999691
 30
0.0
 10
35.960273
 20
192.210405
 30
0.0
 10
35.585200
 20
192.585478
 30
0.0
  0
SPLINE
  5
1c1
100
AcDbEntity
  8
Warstwa_1
 62
7
100
AcDbSpline
 70
8
 71
3
 72
8
 73
4
 74
0
 40
0
 40
0
 40
0
 40
0
 40
1
 40
1
 40
1
 40
1
 10
35.585200
 20
192.585478
 30
0.0
 10
35.210127
 20
192.960551
 30
0.0
 10
34.999413
 20
193.469259
 30
0.0
 10
34.999413
 20
193.999692
 30
0.0
  0
LWPOLYLINE
  5
1c2
100
AcDbEntity
  8
Warstwa_1
 62
7
100
AcDbPolyline
 90
2
 70
0
 10
122.999084
 20
191.999691
 30
0.0
 10
36.999414
 20
191.999691
 30
0.0
  0
SPLINE
  5
1c3
100
AcDbEntity
  8
Warstwa_1
 62
7
100
AcDbSpline
 70
8
 71
3
 72
8
 73
4
 74
0
 40
0
 40
0
 40
0
 40
0
 40
1
 40
1
 40
1
 40
1
 10
34.999413
 20
260.000590
 30
0.0
 10
34.999413
 20
260.531023
 30
0.0
 10
35.210127
 20
261.039731
 30
0.0
 10
35.585200
 20
261.414804
 30
0.0
  0
SPLINE
  5
1c4
100
AcDbEntity
  8
Warstwa_1
 62
7
100
AcDbSpline
 70
8
 71
3
 72
8
 73
4
 74
0
 40
0
 40
0
 40
0
 40
0
 40
1
 40
1
 40
1
 40
1
 10
35.585200
 20
261.414804
 30
0.0
 10
35.960273
 20
261.789877
 30
0.0
 10
36.468981
 20
262.000591
 30
0.0
 10
36.999414
 20
262.000591
 30
0.0
  0
LWPOLYLINE
  5
1c5
100
AcDbEntity
  8
Warstwa_1
 62
7
100
AcDbPolyline
 90
2
 70
0
 10
34.999413
 20
193.999692
 30
0.0
 10
34.999413
 20
260.000590
 30
0.0
  0
LWPOLYLINE
  5
1c6
100
AcDbEntity
  8
Warstwa_1
 62
7
100
AcDbPolyline
 90
1
 70
1
 10
36.999414
 20
262.000591
 30
0.0
  0
SPLINE
  5
1c7
100
AcDbEntity
  8
Warstwa_1
 62
7
100
AcDbSpline
 70
8
 71
3
 72
8
 73
4
 74
0
 40
0
 40
0
 40
0
 40
0
 40
1
 40
1
 40
1
 40
1
 10
122.999084
 20
187.001550
 30
0.0
 10
123.529517
 20
187.001550
 30
0.0
 10
124.038225
 20
186.790836
 30
0.0
 10
124.413298
 20
186.415763
 30
0.0
  0
SPLINE
  5
1c8
100
AcDbEntity
  8
Warstwa_1
 62
7
100
AcDbSpline
 70
8
 71
3
 72
8
 73
4
 74
0
 40
0
 40
0
 40
0
 40
0
 40
1
 40
1
 40
1
 40
1
 10
124.413298
 20
186.415763
 30
0.0
 10
124.788371
 20
186.040690
 30
0.0
 10
124.999085
 20
185.531982
 30
0.0
 10
124.999085
 20
185.001549
 30
0.0
  0
LWPOLYLINE
  5
1c9
100
AcDbEntity
  8
Warstwa_1
 62
7
100
AcDbPolyline
 90
2
 70
0
 10
36.999414
 20
187.001550
 30
0.0
 10
122.999084
 20
187.001550
 30
0.0
  0
SPLINE
  5
1ca
100
AcDbEntity
  8
Warstwa_1
 62
7
100
AcDbSpline
 70
8
 71
3
 72
8
 73
4
 74
0
 40
0
 40
0
 40
0
 40
0
 40
1
 40
1
 40
1
 40
1
 10
124.999085
 20
119.000651
 30
0.0
 10
124.999085
 20
118.470218
 30
0.0
 10
124.788371
 20
117.961510
 30
0.0
 10
124.413298
 20
117.586437
 30
0.0
  0
SPLINE
  5
1cb
100
AcDbEntity
  8
Warstwa_1
 62
7
100
AcDbSpline
 70
8
 71
3
 72
8
 73
4
 74
0
 40
0
 40
0
 40
0
 40
0
 40
1
 40
1
 40
1
 40
1
 10
124.413298
 20
117.586437
 30
0.0
 10
124.038225
 20
117.211364
 30
0.0
 10
123.529517
 20
117.000650
 30
0.0
 10
122.999084
 20
117.000650
 30
0.0
  0
LWPOLYLINE
  5
1cc
100
AcDbEntity
  8
Warstwa_1
 62
7
100
AcDbPolyline
 90
2
 70
0
 10
124.999085
 20
185.001549
 30
0.0
 10
124.999085
 20
119.000651
 30
0.0
  0
SPLINE
  5
1cd
100
AcDbEntity
  8
Warstwa_1
 62
7
100
AcDbSpline
 70
8
 71
3
 72
8
 73
4
 74
0
 40
0
 40
0
 40
0
 40
0
 40
1
 40
1
 40
1
 40
1
 10
36.999414
 20
117.000650
 30
0.0
 10
36.468981
 20
117.000650
 30
0.0
 10
35.960273
 20
117.211364
 30
0.0
 10
35.585200
 20
117.586437
 30
0.0
  0
SPLINE
  5
1ce
100
AcDbEntity
  8
Warstwa_1
 62
7
100
AcDbSpline
 70
8
 71
3
 72
8
 73
4
 74
0
 40
0
 40
0
 40
0
 40
0
 40
1
 40
1
 40
1
 40
1
 10
35.585200
 20
117.586437
 30
0.0
 10
35.210127
 20
117.961510
 30
0.0
 10
34.999413
 20
118.470218
 30
0.0
 10
34.999413
 20
119.000651
 30
0.0
  0
LWPOLYLINE
  5
1cf
100
AcDbEntity
  8
Warstwa_1
 62
7
100
AcDbPolyline
 90
2
 70
0
 10
122.999084
 20
117.000650
 30
0.0
 10
36.999414
 20
117.000650
 30
0.0
  0
SPLINE
  5
1d0
100
AcDbEntity
  8
Warstwa_1
 62
7
100
AcDbSpline
 70
8
 71
3
 72
8
 73
4
 74
0
 40
0
 40
0
 40
0
 40
0
 40
1
 40
1
 40
1
 40
1
 10
34.999413
 20
185.001549
 30
0.0
 10
34.999413
 20
185.531982
 30
0.0
 10
35.210127
 20
186.040690
 30
0.0
 10
35.585200
 20
186.415763
 30
0.0
  0
SPLINE
  5
1d1
100
AcDbEntity
  8
Warstwa_1
 62
7
100
AcDbSpline
 70
8
 71
3
 72
8
 73
4
 74
0
 40
0
 40
0
 40
0
 40
0
 40
1
 40
1
 40
1
 40
1
 10
35.585200
 20
186.415763
 30
0.0
 10
35.960273
 20
186.790836
 30
0.0
 10
36.468981
 20
187.001550
 30
0.0
 10
36.999414
 20
187.001550
 30
0.0
  0
LWPOLYLINE
  5
1d2
100
AcDbEntity
  8
Warstwa_1
 62
7
100
AcDbPolyline
 90
2
 70
0
 10
34.999413
 20
119.000651
 30
0.0
 10
34.999413
 20
185.001549
 30
0.0
  0
SPLINE
  5
1d3
100
AcDbEntity
  8
Warstwa_1
 62
7
100
AcDbSpline
 70
8
 71
3
 72
8
 73
4
 74
0
 40
0
 40
0
 40
0
 40
0
 40
1
 40
1
 40
1
 40
1
 10
37.500000
 20
260.500000
 30
0.0
 10
37.095538
 20
260.500000
 30
0.0
 10
36.730901
 20
260.256358
 30
0.0
 10
36.576120
 20
259.882683
 30
0.0
  0
SPLINE
  5
1d4
100
AcDbEntity
  8
Warstwa_1
 62
7
100
AcDbSpline
 70
8
 71
3
 72
8
 73
4
 74
0
 40
0
 40
0
 40
0
 40
0
 40
1
 40
1
 40
1
 40
1
 10
36.576120
 20
259.882683
 30
0.0
 10
36.421339
 20
259.509009
 30
0.0
 10
36.506895
 20
259.078891
 30
0.0
 10
36.792893
 20
258.792893
 30
0.0
  0
SPLINE
  5
1d5
100
AcDbEntity
  8
Warstwa_1
 62
7
100
AcDbSpline
 70
8
 71
3
 72
8
 73
4
 74
0
 40
0
 40
0
 40
0
 40
0
 40
1
 40
1
 40
1
 40
1
 10
36.792893
 20
258.792893
 30
0.0
 10
37.078891
 20
258.506895
 30
0.0
 10
37.509009
 20
258.421339
 30
0.0
 10
37.882683
 20
258.576120
 30
0.0
  0
SPLINE
  5
1d6
100
AcDbEntity
  8
Warstwa_1
 62
7
100
AcDbSpline
 70
8
 71
3
 72
8
 73
4
 74
0
 40
0
 40
0
 40
0
 40
0
 40
1
 40
1
 40
1
 40
1
 10
37.882683
 20
258.576120
 30
0.0
 10
38.256358
 20
258.730901
 30
0.0
 10
38.500000
 20
259.095538
 30
0.0
 10
38.500000
 20
259.500000
 30
0.0
  0
SPLINE
  5
1d7
100
AcDbEntity
  8
Warstwa_1
 62
7
100
AcDbSpline
 70
8
 71
3
 72
8
 73
4
 74
0
 40
0
 40
0
 40
0
 40
0
 40
1
 40
1
 40
1
 40
1
 10
38.500000
 20
259.500000
 30
0.0
 10
38.500000
 20
259.765216
 30
0.0
 10
38.394643
 20
260.019570
 30
0.0
 10
38.207107
 20
260.207107
 30
0.0
  0
SPLINE
  5
1d8
100
AcDbEntity
  8
Warstwa_1
 62
7
100
AcDbSpline
 70
8
 71
3
 72
8
 73
4
 74
0
 40
0
 40
0
 40
0
 40
0
 40
1
 40
1
 40
1
 40
1
 10
38.207107
 20
260.207107
 30
0.0
 10
38.019570
 20
260.394643
 30
0.0
 10
37.765216
 20
260.500000
 30
0.0
 10
37.500000
 20
260.500000
 30
0.0
  0
LWPOLYLINE
  5
1d9
100
AcDbEntity
  8
Warstwa_1
 62
7
100
AcDbPolyline
 90
1
 70
1
 10
36.999414
 20
187.001550
 30
0.0
  0
SPLINE
  5
1da
100
AcDbEntity
  8
Warstwa_1
 62
7
100
AcDbSpline
 70
8
 71
3
 72
8
 73
4
 74
0
 40
0
 40
0
 40
0
 40
0
 40
1
 40
1
 40
1
 40
1
 10
37.500000
 20
195.500000
 30
0.0
 10
37.095538
 20
195.500000
 30
0.0
 10
36.730901
 20
195.256358
 30
0.0
 10
36.576120
 20
194.882683
 30
0.0
  0
SPLINE
  5
1db
100
AcDbEntity
  8
Warstwa_1
 62
7
100
AcDbSpline
 70
8
 71
3
 72
8
 73
4
 74
0
 40
0
 40
0
 40
0
 40
0
 40
1
 40
1
 40
1
 40
1
 10
36.576120
 20
194.882683
 30
0.0
 10
36.421339
 20
194.509009
 30
0.0
 10
36.506895
 20
194.078891
 30
0.0
 10
36.792893
 20
193.792893
 30
0.0
  0
SPLINE
  5
1dc
100
AcDbEntity
  8
Warstwa_1
 62
7
100
AcDbSpline
 70
8
 71
3
 72
8
 73
4
 74
0
 40
0
 40
0
 40
0
 40
0
 40
1
 40
1
 40
1
 40
1
 10
36.792893
 20
193.792893
 30
0.0
 10
37.078891
 20
193.506895
 30
0.0
 10
37.509009
 20
193.421339
 30
0.0
 10
37.882683
 20
193.576120
 30
0.0
  0
SPLINE
  5
1dd
100
AcDbEntity
  8
Warstwa_1
 62
7
100
AcDbSpline
 70
8
 71
3
 72
8
 73
4
 74
0
 40
0
 40
0
 40
0
 40
0
 40
1
 40
1
 40
1
 40
1
 10
37.882683
 20
193.576120
 30
0.0
 10
38.256358
 20
193.730901
 30
0.0
 10
38.500000
 20
194.095538
 30
0.0
 10
38.500000
 20
194.500000
 30
0.0
  0
SPLINE
  5
1de
100
AcDbEntity
  8
Warstwa_1
 62
7
100
AcDbSpline
 70
8
 71
3
 72
8
 73
4
 74
0
 40
0
 40
0
 40
0
 40
0
 40
1
 40
1
 40
1
 40
1
 10
38.500000
 20
194.500000
 30
0.0
 10
38.500000
 20
194.765216
 30
0.0
 10
38.394643
 20
195.019570
 30
0.0
 10
38.207107
 20
195.207107
 30
0.0
  0
SPLINE
  5
1df
100
AcDbEntity
  8
Warstwa_1
 62
7
100
AcDbSpline
 70
8
 71
3
 72
8
 73
4
 74
0
 40
0
 40
0
 40
0
 40
0
 40
1
 40
1
 40
1
 40
1
 10
38.207107
 20
195.207107
 30
0.0
 10
38.019570
 20
195.394643
 30
0.0
 10
37.765216
 20
195.500000
 30
0.0
 10
37.500000
 20
195.500000
 30
0.0
  0
LWPOLYLINE
  5
1e0
100
AcDbEntity
  8
Warstwa_1
 62
7
100
AcDbPolyline
 90
1
 70
1
 10
37.500000
 20
260.500000
 30
0.0
  0
SPLINE
  5
1e1
100
AcDbEntity
  8
Warstwa_1
 62
7
100
AcDbSpline
 70
8
 71
3
 72
8
 73
4
 74
0
 40
0
 40
0
 40
0
 40
0
 40
1
 40
1
 40
1
 40
1
 10
37.500000
 20
185.500000
 30
0.0
 10
37.095538
 20
185.500000
 30
0.0
 10
36.730901
 20
185.256358
 30
0.0
 10
36.576120
 20
184.882683
 30
0.0
  0
SPLINE
  5
1e2
100
AcDbEntity
  8
Warstwa_1
 62
7
100
AcDbSpline
 70
8
 71
3
 72
8
 73
4
 74
0
 40
0
 40
0
 40
0
 40
0
 40
1
 40
1
 40
1
 40
1
 10
36.576120
 20
184.882683
 30
0.0
 10
36.421339
 20
184.509009
 30
0.0
 10
36.506895
 20
184.078891
 30
0.0
 10
36.792893
 20
183.792893
 30
0.0
  0
SPLINE
  5
1e3
100
AcDbEntity
  8
Warstwa_1
 62
7
100
AcDbSpline
 70
8
 71
3
 72
8
 73
4
 74
0
 40
0
 40
0
 40
0
 40
0
 40
1
 40
1
 40
1
 40
1
 10
36.792893
 20
183.792893
 30
0.0
 10
37.078891
 20
183.506895
 30
0.0
 10
37.509009
 20
183.421339
 30
0.0
 10
37.882683
 20
183.576120
 30
0.0
  0
SPLINE
  5
1e4
100
AcDbEntity
  8
Warstwa_1
 62
7
100
AcDbSpline
 70
8
 71
3
 72
8
 73
4
 74
0
 40
0
 40
0
 40
0
 40
0
 40
1
 40
1
 40
1
 40
1
 10
37.882683
 20
183.576120
 30
0.0
 10
38.256358
 20
183.730901
 30
0.0
 10
38.500000
 20
184.095538
 30
0.0
 10
38.500000
 20
184.500000
 30
0.0
  0
SPLINE
  5
1e5
100
AcDbEntity
  8
Warstwa_1
 62
7
100
AcDbSpline
 70
8
 71
3
 72
8
 73
4
 74
0
 40
0
 40
0
 40
0
 40
0
 40
1
 40
1
 40
1
 40
1
 10
38.500000
 20
184.500000
 30
0.0
 10
38.500000
 20
184.765216
 30
0.0
 10
38.394643
 20
185.019570
 30
0.0
 10
38.207107
 20
185.207107
 30
0.0
  0
SPLINE
  5
1e6
100
AcDbEntity
  8
Warstwa_1
 62
7
100
AcDbSpline
 70
8
 71
3
 72
8
 73
4
 74
0
 40
0
 40
0
 40
0
 40
0
 40
1
 40
1
 40
1
 40
1
 10
38.207107
 20
185.207107
 30
0.0
 10
38.019570
 20
185.394643
 30
0.0
 10
37.765216
 20
185.500000
 30
0.0
 10
37.500000
 20
185.500000
 30
0.0
  0
LWPOLYLINE
  5
1e7
100
AcDbEntity
  8
Warstwa_1
 62
7
100
AcDbPolyline
 90
1
 70
1
 10
37.500000
 20
195.500000
 30
0.0
  0
SPLINE
  5
1e8
100
AcDbEntity
  8
Warstwa_1
 62
7
100
AcDbSpline
 70
8
 71
3
 72
8
 73
4
 74
0
 40
0
 40
0
 40
0
 40
0
 40
1
 40
1
 40
1
 40
1
 10
37.500000
 20
120.500000
 30
0.0
 10
37.095538
 20
120.500000
 30
0.0
 10
36.730901
 20
120.256358
 30
0.0
 10
36.576120
 20
119.882683
 30
0.0
  0
SPLINE
  5
1e9
100
AcDbEntity
  8
Warstwa_1
 62
7
100
AcDbSpline
 70
8
 71
3
 72
8
 73
4
 74
0
 40
0
 40
0
 40
0
 40
0
 40
1
 40
1
 40
1
 40
1
 10
36.576120
 20
119.882683
 30
0.0
 10
36.421339
 20
119.509009
 30
0.0
 10
36.506895
 20
119.078891
 30
0.0
 10
36.792893
 20
118.792893
 30
0.0
  0
SPLINE
  5
1ea
100
AcDbEntity
  8
Warstwa_1
 62
7
100
AcDbSpline
 70
8
 71
3
 72
8
 73
4
 74
0
 40
0
 40
0
 40
0
 40
0
 40
1
 40
1
 40
1
 40
1
 10
36.792893
 20
118.792893
 30
0.0
 10
37.078891
 20
118.506895
 30
0.0
 10
37.509009
 20
118.421339
 30
0.0
 10
37.882683
 20
118.576120
 30
0.0
  0
SPLINE
  5
1eb
100
AcDbEntity
  8
Warstwa_1
 62
7
100
AcDbSpline
 70
8
 71
3
 72
8
 73
4
 74
0
 40
0
 40
0
 40
0
 40
0
 40
1
 40
1
 40
1
 40
1
 10
37.882683
 20
118.576120
 30
0.0
 10
38.256358
 20
118.730901
 30
0.0
 10
38.500000
 20
119.095538
 30
0.0
 10
38.500000
 20
119.500000
 30
0.0
  0
SPLINE
  5
1ec
100
AcDbEntity
  8
Warstwa_1
 62
7
100
AcDbSpline
 70
8
 71
3
 72
8
 73
4
 74
0
 40
0
 40
0
 40
0
 40
0
 40
1
 40
1
 40
1
 40
1
 10
38.500000
 20
119.500000
 30
0.0
 10
38.500000
 20
119.765216
 30
0.0
 10
38.394643
 20
120.019570
 30
0.0
 10
38.207107
 20
120.207107
 30
0.0
  0
SPLINE
  5
1ed
100
AcDbEntity
  8
Warstwa_1
 62
7
100
AcDbSpline
 70
8
 71
3
 72
8
 73
4
 74
0
 40
0
 40
0
 40
0
 40
0
 40
1
 40
1
 40
1
 40
1
 10
38.207107
 20
120.207107
 30
0.0
 10
38.019570
 20
120.394643
 30
0.0
 10
37.765216
 20
120.500000
 30
0.0
 10
37.500000
 20
120.500000
 30
0.0
  0
LWPOLYLINE
  5
1ee
100
AcDbEntity
  8
Warstwa_1
 62
7
100
AcDbPolyline
 90
1
 70
1
 10
37.500000
 20
185.500000
 30
0.0
  0
SPLINE
  5
1ef
100
AcDbEntity
  8
Warstwa_1
 62
7
100
AcDbSpline
 70
8
 71
3
 72
8
 73
4
 74
0
 40
0
 40
0
 40
0
 40
0
 40
1
 40
1
 40
1
 40
1
 10
122.500000
 20
120.500000
 30
0.0
 10
122.095538
 20
120.500000
 30
0.0
 10
121.730901
 20
120.256358
 30
0.0
 10
121.576120
 20
119.882683
 30
0.0
  0
SPLINE
  5
1f0
100
AcDbEntity
  8
Warstwa_1
 62
7
100
AcDbSpline
 70
8
 71
3
 72
8
 73
4
 74
0
 40
0
 40
0
 40
0
 40
0
 40
1
 40
1
 40
1
 40
1
 10
121.576120
 20
119.882683
 30
0.0
 10
121.421339
 20
119.509009
 30
0.0
 10
121.506895
 20
119.078891
 30
0.0
 10
121.792893
 20
118.792893
 30
0.0
  0
SPLINE
  5
1f1
100
AcDbEntity
  8
Warstwa_1
 62
7
100
AcDbSpline
 70
8
 71
3
 72
8
 73
4
 74
0
 40
0
 40
0
 40
0
 40
0
 40
1
 40
1
 40
1
 40
1
 10
121.792893
 20
118.792893
 30
0.0
 10
122.078891
 20
118.506895
 30
0.0
 10
122.509009
 20
118.421339
 30
0.0
 10
122.882683
 20
118.576120
 30
0.0
  0
SPLINE
  5
1f2
100
AcDbEntity
  8
Warstwa_1
 62
7
100
AcDbSpline
 70
8
 71
3
 72
8
 73
4
 74
0
 40
0
 40
0
 40
0
 40
0
 40
1
 40
1
 40
1
 40
1
 10
122.882683
 20
118.576120
 30
0.0
 10
123.256358
 20
118.730901
 30
0.0
 10
123.500000
 20
119.095538
 30
0.0
 10
123.500000
 20
119.500000
 30
0.0
  0
SPLINE
  5
1f3
100
AcDbEntity
  8
Warstwa_1
 62
7
100
AcDbSpline
 70
8
 71
3
 72
8
 73
4
 74
0
 40
0
 40
0
 40
0
 40
0
 40
1
 40
1
 40
1
 40
1
 10
123.500000
 20
119.500000
 30
0.0
 10
123.500000
 20
119.765216
 30
0.0
 10
123.394643
 20
120.019570
 30
0.0
 10
123.207107
 20
120.207107
 30
0.0
  0
SPLINE
  5
1f4
100
AcDbEntity
  8
Warstwa_1
 62
7
100
AcDbSpline
 70
8
 71
3
 72
8
 73
4
 74
0
 40
0
 40
0
 40
0
 40
0
 40
1
 40
1
 40
1
 40
1
 10
123.207107
 20
120.207107
 30
0.0
 10
123.019570
 20
120.394643
 30
0.0
 10
122.765216
 20
120.500000
 30
0.0
 10
122.500000
 20
120.500000
 30
0.0
  0
LWPOLYLINE
  5
1f5
100
AcDbEntity
  8
Warstwa_1
 62
7
100
AcDbPolyline
 90
1
 70
1
 10
37.500000
 20
120.500000
 30
0.0
  0
SPLINE
  5
1f6
100
AcDbEntity
  8
Warstwa_1
 62
7
100
AcDbSpline
 70
8
 71
3
 72
8
 73
4
 74
0
 40
0
 40
0
 40
0
 40
0
 40
1
 40
1
 40
1
 40
1
 10
122.500000
 20
185.500000
 30
0.0
 10
122.095538
 20
185.500000
 30
0.0
 10
121.730901
 20
185.256358
 30
0.0
 10
121.576120
 20
184.882683
 30
0.0
  0
SPLINE
  5
1f7
100
AcDbEntity
  8
Warstwa_1
 62
7
100
AcDbSpline
 70
8
 71
3
 72
8
 73
4
 74
0
 40
0
 40
0
 40
0
 40
0
 40
1
 40
1
 40
1
 40
1
 10
121.576120
 20
184.882683
 30
0.0
 10
121.421339
 20
184.509009
 30
0.0
 10
121.506895
 20
184.078891
 30
0.0
 10
121.792893
 20
183.792893
 30
0.0
  0
SPLINE
  5
1f8
100
AcDbEntity
  8
Warstwa_1
 62
7
100
AcDbSpline
 70
8
 71
3
 72
8
 73
4
 74
0
 40
0
 40
0
 40
0
 40
0
 40
1
 40
1
 40
1
 40
1
 10
121.792893
 20
183.792893
 30
0.0
 10
122.078891
 20
183.506895
 30
0.0
 10
122.509009
 20
183.421339
 30
0.0
 10
122.882683
 20
183.576120
 30
0.0
  0
SPLINE
  5
1f9
100
AcDbEntity
  8
Warstwa_1
 62
7
100
AcDbSpline
 70
8
 71
3
 72
8
 73
4
 74
0
 40
0
 40
0
 40
0
 40
0
 40
1
 40
1
 40
1
 40
1
 10
122.882683
 20
183.576120
 30
0.0
 10
123.256358
 20
183.730901
 30
0.0
 10
123.500000
 20
184.095538
 30
0.0
 10
123.500000
 20
184.500000
 30
0.0
  0
SPLINE
  5
1fa
100
AcDbEntity
  8
Warstwa_1
 62
7
100
AcDbSpline
 70
8
 71
3
 72
8
 73
4
 74
0
 40
0
 40
0
 40
0
 40
0
 40
1
 40
1
 40
1
 40
1
 10
123.500000
 20
184.500000
 30
0.0
 10
123.500000
 20
184.765216
 30
0.0
 10
123.394643
 20
185.019570
 30
0.0
 10
123.207107
 20
185.207107
 30
0.0
  0
SPLINE
  5
1fb
100
AcDbEntity
  8
Warstwa_1
 62
7
100
AcDbSpline
 70
8
 71
3
 72
8
 73
4
 74
0
 40
0
 40
0
 40
0
 40
0
 40
1
 40
1
 40
1
 40
1
 10
123.207107
 20
185.207107
 30
0.0
 10
123.019570
 20
185.394643
 30
0.0
 10
122.765216
 20
185.500000
 30
0.0
 10
122.500000
 20
185.500000
 30
0.0
  0
LWPOLYLINE
  5
1fc
100
AcDbEntity
  8
Warstwa_1
 62
7
100
AcDbPolyline
 90
1
 70
1
 10
122.500000
 20
120.500000
 30
0.0
  0
SPLINE
  5
1fd
100
AcDbEntity
  8
Warstwa_1
 62
7
100
AcDbSpline
 70
8
 71
3
 72
8
 73
4
 74
0
 40
0
 40
0
 40
0
 40
0
 40
1
 40
1
 40
1
 40
1
 10
122.500000
 20
195.500000
 30
0.0
 10
122.095538
 20
195.500000
 30
0.0
 10
121.730901
 20
195.256358
 30
0.0
 10
121.576120
 20
194.882683
 30
0.0
  0
SPLINE
  5
1fe
100
AcDbEntity
  8
Warstwa_1
 62
7
100
AcDbSpline
 70
8
 71
3
 72
8
 73
4
 74
0
 40
0
 40
0
 40
0
 40
0
 40
1
 40
1
 40
1
 40
1
 10
121.576120
 20
194.882683
 30
0.0
 10
121.421339
 20
194.509009
 30
0.0
 10
121.506895
 20
194.078891
 30
0.0
 10
121.792893
 20
193.792893
 30
0.0
  0
SPLINE
  5
1ff
100
AcDbEntity
  8
Warstwa_1
 62
7
100
AcDbSpline
 70
8
 71
3
 72
8
 73
4
 74
0
 40
0
 40
0
 40
0
 40
0
 40
1
 40
1
 40
1
 40
1
 10
121.792893
 20
193.792893
 30
0.0
 10
122.078891
 20
193.506895
 30
0.0
 10
122.509009
 20
193.421339
 30
0.0
 10
122.882683
 20
193.576120
 30
0.0
  0
SPLINE
  5
200
100
AcDbEntity
  8
Warstwa_1
 62
7
100
AcDbSpline
 70
8
 71
3
 72
8
 73
4
 74
0
 40
0
 40
0
 40
0
 40
0
 40
1
 40
1
 40
1
 40
1
 10
122.882683
 20
193.576120
 30
0.0
 10
123.256358
 20
193.730901
 30
0.0
 10
123.500000
 20
194.095538
 30
0.0
 10
123.500000
 20
194.500000
 30
0.0
  0
SPLINE
  5
201
100
AcDbEntity
  8
Warstwa_1
 62
7
100
AcDbSpline
 70
8
 71
3
 72
8
 73
4
 74
0
 40
0
 40
0
 40
0
 40
0
 40
1
 40
1
 40
1
 40
1
 10
123.500000
 20
194.500000
 30
0.0
 10
123.500000
 20
194.765216
 30
0.0
 10
123.394643
 20
195.019570
 30
0.0
 10
123.207107
 20
195.207107
 30
0.0
  0
SPLINE
  5
202
100
AcDbEntity
  8
Warstwa_1
 62
7
100
AcDbSpline
 70
8
 71
3
 72
8
 73
4
 74
0
 40
0
 40
0
 40
0
 40
0
 40
1
 40
1
 40
1
 40
1
 10
123.207107
 20
195.207107
 30
0.0
 10
123.019570
 20
195.394643
 30
0.0
 10
122.765216
 20
195.500000
 30
0.0
 10
122.500000
 20
195.500000
 30
0.0
  0
LWPOLYLINE
  5
203
100
AcDbEntity
  8
Warstwa_1
 62
7
100
AcDbPolyline
 90
1
 70
1
 10
122.500000
 20
185.500000
 30
0.0
  0
SPLINE
  5
204
100
AcDbEntity
  8
Warstwa_1
 62
7
100
AcDbSpline
 70
8
 71
3
 72
8
 73
4
 74
0
 40
0
 40
0
 40
0
 40
0
 40
1
 40
1
 40
1
 40
1
 10
122.500000
 20
260.500000
 30
0.0
 10
122.095538
 20
260.500000
 30
0.0
 10
121.730901
 20
260.256358
 30
0.0
 10
121.576120
 20
259.882683
 30
0.0
  0
SPLINE
  5
205
100
AcDbEntity
  8
Warstwa_1
 62
7
100
AcDbSpline
 70
8
 71
3
 72
8
 73
4
 74
0
 40
0
 40
0
 40
0
 40
0
 40
1
 40
1
 40
1
 40
1
 10
121.576120
 20
259.882683
 30
0.0
 10
121.421339
 20
259.509009
 30
0.0
 10
121.506895
 20
259.078891
 30
0.0
 10
121.792893
 20
258.792893
 30
0.0
  0
SPLINE
  5
206
100
AcDbEntity
  8
Warstwa_1
 62
7
100
AcDbSpline
 70
8
 71
3
 72
8
 73
4
 74
0
 40
0
 40
0
 40
0
 40
0
 40
1
 40
1
 40
1
 40
1
 10
121.792893
 20
258.792893
 30
0.0
 10
122.078891
 20
258.506895
 30
0.0
 10
122.509009
 20
258.421339
 30
0.0
 10
122.882683
 20
258.576120
 30
0.0
  0
SPLINE
  5
207
100
AcDbEntity
  8
Warstwa_1
 62
7
100
AcDbSpline
 70
8
 71
3
 72
8
 73
4
 74
0
 40
0
 40
0
 40
0
 40
0
 40
1
 40
1
 40
1
 40
1
 10
122.882683
 20
258.576120
 30
0.0
 10
123.256358
 20
258.730901
 30
0.0
 10
123.500000
 20
259.095538
 30
0.0
 10
123.500000
 20
259.500000
 30
0.0
  0
SPLINE
  5
208
100
AcDbEntity
  8
Warstwa_1
 62
7
100
AcDbSpline
 70
8
 71
3
 72
8
 73
4
 74
0
 40
0
 40
0
 40
0
 40
0
 40
1
 40
1
 40
1
 40
1
 10
123.500000
 20
259.500000
 30
0.0
 10
123.500000
 20
259.765216
 30
0.0
 10
123.394643
 20
260.019570
 30
0.0
 10
123.207107
 20
260.207107
 30
0.0
  0
SPLINE
  5
209
100
AcDbEntity
  8
Warstwa_1
 62
7
100
AcDbSpline
 70
8
 71
3
 72
8
 73
4
 74
0
 40
0
 40
0
 40
0
 40
0
 40
1
 40
1
 40
1
 40
1
 10
123.207107
 20
260.207107
 30
0.0
 10
123.019570
 20
260.394643
 30
0.0
 10
122.765216
 20
260.500000
 30
0.0
 10
122.500000
 20
260.500000
 30
0.0
  0
LWPOLYLINE
  5
20a
100
AcDbEntity
  8
Warstwa_1
 62
7
100
AcDbPolyline
 90
1
 70
1
 10
122.500000
 20
195.500000
 30
0.0
  0
LWPOLYLINE
  5
20b
100
AcDbEntity
  8
Warstwa_1
 62
7
100
AcDbPolyline
 90
1
 70
1
 10
122.500000
 20
260.500000
 30
0.0
  0
ENDSEC
  0
SECTION
  2
OBJECTS
  0
DICTIONARY
  5
C
330
0
100
AcDbDictionary
  3
ACAD_GROUP
350
D
  3
ACAD_MLINESTYLE
350
17
  0
DICTIONARY
  5
D
330
C
100
AcDbDictionary
  0
DICTIONARY
  5
1A
330
C
100
AcDbDictionary
  0
DICTIONARY
  5
17
330
C
100
AcDbDictionary
  3
STANDARD
350
18
  0
DICTIONARY
  5
19
330
C
100
AcDbDictionary
  0
ENDSEC
  0
EOF
