  0
SECTION
  2
HEADER
  9
$ACADVER
  1
AC1014
  9
$HANDSEED
  5
FFFF
  9
$MEASUREMENT
 70
     1
  0
ENDSEC
  0
SECTION
  2
TABLES
  0
TABLE
  2
VPORT
  5
8
330
0
100
AcDbSymbolTable
 70
     4
  0
VPORT
  5
2E
330
8
100
AcDbSymbolTableRecord
100
AcDbViewportTableRecord
  2
*ACTIVE
 70
     0
 10
0.0
 20
0.0
 11
1.0
 21
1.0
 12
210.0
 22
148.5
 13
0.0
 23
0.0
 14
10.0
 24
10.0
 15
10.0
 25
10.0
 16
0.0
 26
0.0
 36
1.0
 17
0.0
 27
0.0
 37
0.0
 40
341.0
 41
1.24
 42
50.0
 43
0.0
 44
0.0
 50
0.0
 51
0.0
 71
     0
 72
   100
 73
     1
 74
     3
 75
     0
 76
     0
 77
     0
 78
     0
  0
ENDTAB
  0
TABLE
  2
LTYPE
  5
5
330
0
100
AcDbSymbolTable
 70
     1
  0
LTYPE
  5
14
330
5
100
AcDbSymbolTableRecord
100
AcDbLinetypeTableRecord
  2
BYBLOCK
 70
     0
  3

 72
    65
 73
     0
 40
0.0
  0
LTYPE
  5
15
330
5
100
AcDbSymbolTableRecord
100
AcDbLinetypeTableRecord
  2
BYLAYER
 70
     0
  3

 72
    65
 73
     0
 40
0.0
  0
LTYPE
  5
16
330
5
100
AcDbSymbolTableRecord
100
AcDbLinetypeTableRecord
  2
CONTINUOUS
 70
     0
  3
Solid line
 72
    65
 73
     0
 40
0.0
  0
ENDTAB
  0
TABLE
  2
LAYER
  5
2
100
AcDbSymbolTable
 70
2
  0
LAYER
  5
50
100
AcDbSymbolTableRecord
100
AcDbLayerTableRecord
  2
0
 70
0
  6
CONTINUOUS
  0
LAYER
  5
51
100
AcDbSymbolTableRecord
100
AcDbLayerTableRecord
  2
Warstwa_1
 70
0
  6
CONTINUOUS
  0
ENDTAB
  0
TABLE
  2
STYLE
  5
3
330
0
100
AcDbSymbolTable
 70
     1
  0
STYLE
  5
11
330
3
100
AcDbSymbolTableRecord
100
AcDbTextStyleTableRecord
  2
STANDARD
 70
     0
 40
0.0
 41
1.0
 50
0.0
 71
     0
 42
2.5
  3
txt
  4

  0
ENDTAB
  0
TABLE
  2
VIEW
  5
6
330
0
100
AcDbSymbolTable
 70
     0
  0
ENDTAB
  0
TABLE
  2
UCS
  5
7
330
0
100
AcDbSymbolTable
 70
     0
  0
ENDTAB
  0
TABLE
  2
APPID
  5
9
330
0
100
AcDbSymbolTable
 70
     2
  0
APPID
  5
12
330
9
100
AcDbSymbolTableRecord
100
AcDbRegAppTableRecord
  2
ACAD
 70
     0
  0
ENDTAB
  0
TABLE
  2
DIMSTYLE
  5
A
330
0
100
AcDbSymbolTable
 70
     1
  0
DIMSTYLE
105
27
330
A
100
AcDbSymbolTableRecord
100
AcDbDimStyleTableRecord
  2
ISO-25
 70
     0
  3

  4

  5

  6

  7

 40
1.0
 41
2.5
 42
0.625
 43
3.75
 44
1.25
 45
0.0
 46
0.0
 47
0.0
 48
0.0
140
2.5
141
2.5
142
0.0
143
0.03937007874016
144
1.0
145
0.0
146
1.0
147
0.625
 71
     0
 72
     0
 73
     0
 74
     0
 75
     0
 76
     0
 77
     1
 78
     8
170
     0
171
     3
172
     1
173
     0
174
     0
175
     0
176
     0
177
     0
178
     0
270
     2
271
     2
272
     2
273
     2
274
     3
340
11
275
     0
280
     0
281
     0
282
     0
283
     0
284
     8
285
     0
286
     0
287
     3
288
     0
  0
ENDTAB
  0
TABLE
  2
BLOCK_RECORD
  5
1
330
0
100
AcDbSymbolTable
 70
     1
  0
BLOCK_RECORD
  5
1F
330
1
100
AcDbSymbolTableRecord
100
AcDbBlockTableRecord
  2
*MODEL_SPACE
  0
BLOCK_RECORD
  5
1B
330
1
100
AcDbSymbolTableRecord
100
AcDbBlockTableRecord
  2
*PAPER_SPACE
  0
ENDTAB
  0
ENDSEC
  0
SECTION
  2
BLOCKS
  0
BLOCK
  5
20
330
1F
100
AcDbEntity
  8
0
100
AcDbBlockBegin
  2
*MODEL_SPACE
 70
     0
 10
0.0
 20
0.0
 30
0.0
  3
*MODEL_SPACE
  1

  0
ENDBLK
  5
21
330
1F
100
AcDbEntity
  8
0
100
AcDbBlockEnd
  0
BLOCK
  5
1C
330
1B
100
AcDbEntity
 67
     1
  8
0
100
AcDbBlockBegin
  2
*PAPER_SPACE
  1

  0
ENDBLK
  5
1D
330
1B
100
AcDbEntity
 67
     1
  8
0
100
AcDbBlockEnd
  0
ENDSEC
  0
SECTION
  2
ENTITIES
  0
LWPOLYLINE
  5
100
100
AcDbEntity
  8
Warstwa_1
 62
1
100
AcDbPolyline
 90
2
 70
0
 10
77.309483
 20
244.977539
 30
0.0
 10
76.498083
 20
244.977539
 30
0.0
  0
LWPOLYLINE
  5
101
100
AcDbEntity
  8
Warstwa_1
 62
1
100
AcDbPolyline
 90
2
 70
0
 10
76.498083
 20
241.483640
 30
0.0
 10
77.309483
 20
241.483640
 30
0.0
  0
LWPOLYLINE
  5
102
100
AcDbEntity
  8
Warstwa_1
 62
1
100
AcDbPolyline
 90
2
 70
0
 10
61.741593
 20
249.977540
 30
0.0
 10
61.741593
 20
253.471439
 30
0.0
  0
LWPOLYLINE
  5
103
100
AcDbEntity
  8
Warstwa_1
 62
1
100
AcDbPolyline
 90
2
 70
0
 10
62.552983
 20
244.977539
 30
0.0
 10
62.552983
 20
249.977540
 30
0.0
  0
LWPOLYLINE
  5
104
100
AcDbEntity
  8
Warstwa_1
 62
1
100
AcDbPolyline
 90
2
 70
0
 10
61.741593
 20
241.483640
 30
0.0
 10
61.741593
 20
244.977539
 30
0.0
  0
LWPOLYLINE
  5
105
100
AcDbEntity
  8
Warstwa_1
 62
1
100
AcDbPolyline
 90
2
 70
0
 10
62.552983
 20
240.504940
 30
0.0
 10
62.552983
 20
241.483640
 30
0.0
  0
LWPOLYLINE
  5
106
100
AcDbEntity
  8
Warstwa_1
 62
1
100
AcDbPolyline
 90
2
 70
0
 10
77.309483
 20
244.977539
 30
0.0
 10
77.309483
 20
241.483640
 30
0.0
  0
LWPOLYLINE
  5
107
100
AcDbEntity
  8
Warstwa_1
 62
1
100
AcDbPolyline
 90
2
 70
0
 10
76.498083
 20
249.977540
 30
0.0
 10
76.498083
 20
244.977539
 30
0.0
  0
LWPOLYLINE
  5
108
100
AcDbEntity
  8
Warstwa_1
 62
1
100
AcDbPolyline
 90
2
 70
0
 10
62.552983
 20
254.450138
 30
0.0
 10
76.498083
 20
254.450138
 30
0.0
  0
LWPOLYLINE
  5
109
100
AcDbEntity
  8
Warstwa_1
 62
1
100
AcDbPolyline
 90
2
 70
0
 10
62.552983
 20
253.471439
 30
0.0
 10
62.552983
 20
254.450138
 30
0.0
  0
LWPOLYLINE
  5
10a
100
AcDbEntity
  8
Warstwa_1
 62
1
100
AcDbPolyline
 90
2
 70
0
 10
61.741593
 20
253.471439
 30
0.0
 10
62.552983
 20
253.471439
 30
0.0
  0
LWPOLYLINE
  5
10b
100
AcDbEntity
  8
Warstwa_1
 62
1
100
AcDbPolyline
 90
2
 70
0
 10
62.552983
 20
249.977540
 30
0.0
 10
61.741593
 20
249.977540
 30
0.0
  0
LWPOLYLINE
  5
10c
100
AcDbEntity
  8
Warstwa_1
 62
1
100
AcDbPolyline
 90
2
 70
0
 10
61.741593
 20
244.977539
 30
0.0
 10
62.552983
 20
244.977539
 30
0.0
  0
LWPOLYLINE
  5
10d
100
AcDbEntity
  8
Warstwa_1
 62
1
100
AcDbPolyline
 90
2
 70
0
 10
62.552983
 20
241.483640
 30
0.0
 10
61.741593
 20
241.483640
 30
0.0
  0
LWPOLYLINE
  5
10e
100
AcDbEntity
  8
Warstwa_1
 62
1
100
AcDbPolyline
 90
2
 70
0
 10
76.498083
 20
240.504940
 30
0.0
 10
62.552983
 20
240.504940
 30
0.0
  0
LWPOLYLINE
  5
10f
100
AcDbEntity
  8
Warstwa_1
 62
1
100
AcDbPolyline
 90
2
 70
0
 10
76.498083
 20
241.483640
 30
0.0
 10
76.498083
 20
240.504940
 30
0.0
  0
LWPOLYLINE
  5
110
100
AcDbEntity
  8
Warstwa_1
 62
1
100
AcDbPolyline
 90
2
 70
0
 10
77.309483
 20
253.471439
 30
0.0
 10
77.309483
 20
249.977540
 30
0.0
  0
LWPOLYLINE
  5
111
100
AcDbEntity
  8
Warstwa_1
 62
1
100
AcDbPolyline
 90
2
 70
0
 10
76.498083
 20
253.471439
 30
0.0
 10
76.498083
 20
254.450138
 30
0.0
  0
LWPOLYLINE
  5
112
100
AcDbEntity
  8
Warstwa_1
 62
1
100
AcDbPolyline
 90
2
 70
0
 10
77.309483
 20
253.471439
 30
0.0
 10
76.498083
 20
253.471439
 30
0.0
  0
LWPOLYLINE
  5
113
100
AcDbEntity
  8
Warstwa_1
 62
1
100
AcDbPolyline
 90
2
 70
0
 10
76.498083
 20
249.977540
 30
0.0
 10
77.309483
 20
249.977540
 30
0.0
  0
LWPOLYLINE
  5
114
100
AcDbEntity
  8
Warstwa_1
 62
1
100
AcDbPolyline
 90
2
 70
0
 10
97.308262
 20
244.977539
 30
0.0
 10
96.496862
 20
244.977539
 30
0.0
  0
LWPOLYLINE
  5
115
100
AcDbEntity
  8
Warstwa_1
 62
1
100
AcDbPolyline
 90
2
 70
0
 10
96.496862
 20
241.483640
 30
0.0
 10
97.308262
 20
241.483640
 30
0.0
  0
LWPOLYLINE
  5
116
100
AcDbEntity
  8
Warstwa_1
 62
1
100
AcDbPolyline
 90
2
 70
0
 10
81.740372
 20
249.977540
 30
0.0
 10
81.740372
 20
253.471439
 30
0.0
  0
LWPOLYLINE
  5
117
100
AcDbEntity
  8
Warstwa_1
 62
1
100
AcDbPolyline
 90
2
 70
0
 10
82.551762
 20
244.977539
 30
0.0
 10
82.551762
 20
249.977540
 30
0.0
  0
LWPOLYLINE
  5
118
100
AcDbEntity
  8
Warstwa_1
 62
1
100
AcDbPolyline
 90
2
 70
0
 10
81.740372
 20
241.483640
 30
0.0
 10
81.740372
 20
244.977539
 30
0.0
  0
LWPOLYLINE
  5
119
100
AcDbEntity
  8
Warstwa_1
 62
1
100
AcDbPolyline
 90
2
 70
0
 10
82.551762
 20
240.504940
 30
0.0
 10
82.551762
 20
241.483640
 30
0.0
  0
LWPOLYLINE
  5
11a
100
AcDbEntity
  8
Warstwa_1
 62
1
100
AcDbPolyline
 90
2
 70
0
 10
97.308262
 20
244.977539
 30
0.0
 10
97.308262
 20
241.483640
 30
0.0
  0
LWPOLYLINE
  5
11b
100
AcDbEntity
  8
Warstwa_1
 62
1
100
AcDbPolyline
 90
2
 70
0
 10
96.496862
 20
249.977540
 30
0.0
 10
96.496862
 20
244.977539
 30
0.0
  0
LWPOLYLINE
  5
11c
100
AcDbEntity
  8
Warstwa_1
 62
1
100
AcDbPolyline
 90
2
 70
0
 10
82.551762
 20
254.450138
 30
0.0
 10
96.496862
 20
254.450138
 30
0.0
  0
LWPOLYLINE
  5
11d
100
AcDbEntity
  8
Warstwa_1
 62
1
100
AcDbPolyline
 90
2
 70
0
 10
82.551762
 20
253.471439
 30
0.0
 10
82.551762
 20
254.450138
 30
0.0
  0
LWPOLYLINE
  5
11e
100
AcDbEntity
  8
Warstwa_1
 62
1
100
AcDbPolyline
 90
2
 70
0
 10
81.740372
 20
253.471439
 30
0.0
 10
82.551762
 20
253.471439
 30
0.0
  0
LWPOLYLINE
  5
11f
100
AcDbEntity
  8
Warstwa_1
 62
1
100
AcDbPolyline
 90
2
 70
0
 10
82.551762
 20
249.977540
 30
0.0
 10
81.740372
 20
249.977540
 30
0.0
  0
LWPOLYLINE
  5
120
100
AcDbEntity
  8
Warstwa_1
 62
1
100
AcDbPolyline
 90
2
 70
0
 10
81.740372
 20
244.977539
 30
0.0
 10
82.551762
 20
244.977539
 30
0.0
  0
LWPOLYLINE
  5
121
100
AcDbEntity
  8
Warstwa_1
 62
1
100
AcDbPolyline
 90
2
 70
0
 10
82.551762
 20
241.483640
 30
0.0
 10
81.740372
 20
241.483640
 30
0.0
  0
LWPOLYLINE
  5
122
100
AcDbEntity
  8
Warstwa_1
 62
1
100
AcDbPolyline
 90
2
 70
0
 10
96.496862
 20
240.504940
 30
0.0
 10
82.551762
 20
240.504940
 30
0.0
  0
LWPOLYLINE
  5
123
100
AcDbEntity
  8
Warstwa_1
 62
1
100
AcDbPolyline
 90
2
 70
0
 10
96.496862
 20
241.483640
 30
0.0
 10
96.496862
 20
240.504940
 30
0.0
  0
LWPOLYLINE
  5
124
100
AcDbEntity
  8
Warstwa_1
 62
1
100
AcDbPolyline
 90
2
 70
0
 10
97.308262
 20
253.471439
 30
0.0
 10
97.308262
 20
249.977540
 30
0.0
  0
LWPOLYLINE
  5
125
100
AcDbEntity
  8
Warstwa_1
 62
1
100
AcDbPolyline
 90
2
 70
0
 10
96.496862
 20
253.471439
 30
0.0
 10
96.496862
 20
254.450138
 30
0.0
  0
LWPOLYLINE
  5
126
100
AcDbEntity
  8
Warstwa_1
 62
1
100
AcDbPolyline
 90
2
 70
0
 10
97.308262
 20
253.471439
 30
0.0
 10
96.496862
 20
253.471439
 30
0.0
  0
LWPOLYLINE
  5
127
100
AcDbEntity
  8
Warstwa_1
 62
1
100
AcDbPolyline
 90
2
 70
0
 10
96.496862
 20
249.977540
 30
0.0
 10
97.308262
 20
249.977540
 30
0.0
  0
LWPOLYLINE
  5
128
100
AcDbEntity
  8
Warstwa_1
 62
1
100
AcDbPolyline
 90
2
 70
0
 10
57.308637
 20
224.975659
 30
0.0
 10
56.497237
 20
224.975659
 30
0.0
  0
LWPOLYLINE
  5
129
100
AcDbEntity
  8
Warstwa_1
 62
1
100
AcDbPolyline
 90
2
 70
0
 10
56.497237
 20
221.481760
 30
0.0
 10
57.308637
 20
221.481760
 30
0.0
  0
LWPOLYLINE
  5
12a
100
AcDbEntity
  8
Warstwa_1
 62
1
100
AcDbPolyline
 90
2
 70
0
 10
41.740747
 20
229.975660
 30
0.0
 10
41.740747
 20
233.469559
 30
0.0
  0
LWPOLYLINE
  5
12b
100
AcDbEntity
  8
Warstwa_1
 62
1
100
AcDbPolyline
 90
2
 70
0
 10
42.552137
 20
224.975659
 30
0.0
 10
42.552137
 20
229.975660
 30
0.0
  0
LWPOLYLINE
  5
12c
100
AcDbEntity
  8
Warstwa_1
 62
1
100
AcDbPolyline
 90
2
 70
0
 10
41.740747
 20
221.481760
 30
0.0
 10
41.740747
 20
224.975659
 30
0.0
  0
LWPOLYLINE
  5
12d
100
AcDbEntity
  8
Warstwa_1
 62
1
100
AcDbPolyline
 90
2
 70
0
 10
42.552137
 20
220.503060
 30
0.0
 10
42.552137
 20
221.481760
 30
0.0
  0
LWPOLYLINE
  5
12e
100
AcDbEntity
  8
Warstwa_1
 62
1
100
AcDbPolyline
 90
2
 70
0
 10
57.308637
 20
224.975659
 30
0.0
 10
57.308637
 20
221.481760
 30
0.0
  0
LWPOLYLINE
  5
12f
100
AcDbEntity
  8
Warstwa_1
 62
1
100
AcDbPolyline
 90
2
 70
0
 10
56.497237
 20
229.975660
 30
0.0
 10
56.497237
 20
224.975659
 30
0.0
  0
LWPOLYLINE
  5
130
100
AcDbEntity
  8
Warstwa_1
 62
1
100
AcDbPolyline
 90
2
 70
0
 10
42.552137
 20
234.448258
 30
0.0
 10
56.497237
 20
234.448258
 30
0.0
  0
LWPOLYLINE
  5
131
100
AcDbEntity
  8
Warstwa_1
 62
1
100
AcDbPolyline
 90
2
 70
0
 10
42.552137
 20
233.469559
 30
0.0
 10
42.552137
 20
234.448258
 30
0.0
  0
LWPOLYLINE
  5
132
100
AcDbEntity
  8
Warstwa_1
 62
1
100
AcDbPolyline
 90
2
 70
0
 10
41.740747
 20
233.469559
 30
0.0
 10
42.552137
 20
233.469559
 30
0.0
  0
LWPOLYLINE
  5
133
100
AcDbEntity
  8
Warstwa_1
 62
1
100
AcDbPolyline
 90
2
 70
0
 10
42.552137
 20
229.975660
 30
0.0
 10
41.740747
 20
229.975660
 30
0.0
  0
LWPOLYLINE
  5
134
100
AcDbEntity
  8
Warstwa_1
 62
1
100
AcDbPolyline
 90
2
 70
0
 10
41.740747
 20
224.975659
 30
0.0
 10
42.552137
 20
224.975659
 30
0.0
  0
LWPOLYLINE
  5
135
100
AcDbEntity
  8
Warstwa_1
 62
1
100
AcDbPolyline
 90
2
 70
0
 10
42.552137
 20
221.481760
 30
0.0
 10
41.740747
 20
221.481760
 30
0.0
  0
LWPOLYLINE
  5
136
100
AcDbEntity
  8
Warstwa_1
 62
1
100
AcDbPolyline
 90
2
 70
0
 10
56.497237
 20
220.503060
 30
0.0
 10
42.552137
 20
220.503060
 30
0.0
  0
LWPOLYLINE
  5
137
100
AcDbEntity
  8
Warstwa_1
 62
1
100
AcDbPolyline
 90
2
 70
0
 10
56.497237
 20
221.481760
 30
0.0
 10
56.497237
 20
220.503060
 30
0.0
  0
LWPOLYLINE
  5
138
100
AcDbEntity
  8
Warstwa_1
 62
1
100
AcDbPolyline
 90
2
 70
0
 10
57.308637
 20
233.469559
 30
0.0
 10
57.308637
 20
229.975660
 30
0.0
  0
LWPOLYLINE
  5
139
100
AcDbEntity
  8
Warstwa_1
 62
1
100
AcDbPolyline
 90
2
 70
0
 10
56.497237
 20
233.469559
 30
0.0
 10
56.497237
 20
234.448258
 30
0.0
  0
LWPOLYLINE
  5
13a
100
AcDbEntity
  8
Warstwa_1
 62
1
100
AcDbPolyline
 90
2
 70
0
 10
57.308637
 20
233.469559
 30
0.0
 10
56.497237
 20
233.469559
 30
0.0
  0
LWPOLYLINE
  5
13b
100
AcDbEntity
  8
Warstwa_1
 62
1
100
AcDbPolyline
 90
2
 70
0
 10
56.497237
 20
229.975660
 30
0.0
 10
57.308637
 20
229.975660
 30
0.0
  0
LWPOLYLINE
  5
13c
100
AcDbEntity
  8
Warstwa_1
 62
1
100
AcDbPolyline
 90
2
 70
0
 10
77.309483
 20
224.975659
 30
0.0
 10
76.498083
 20
224.975659
 30
0.0
  0
LWPOLYLINE
  5
13d
100
AcDbEntity
  8
Warstwa_1
 62
1
100
AcDbPolyline
 90
2
 70
0
 10
76.498083
 20
221.481760
 30
0.0
 10
77.309483
 20
221.481760
 30
0.0
  0
LWPOLYLINE
  5
13e
100
AcDbEntity
  8
Warstwa_1
 62
1
100
AcDbPolyline
 90
2
 70
0
 10
61.741593
 20
229.975660
 30
0.0
 10
61.741593
 20
233.469559
 30
0.0
  0
LWPOLYLINE
  5
13f
100
AcDbEntity
  8
Warstwa_1
 62
1
100
AcDbPolyline
 90
2
 70
0
 10
62.552983
 20
224.975659
 30
0.0
 10
62.552983
 20
229.975660
 30
0.0
  0
LWPOLYLINE
  5
140
100
AcDbEntity
  8
Warstwa_1
 62
1
100
AcDbPolyline
 90
2
 70
0
 10
61.741593
 20
221.481760
 30
0.0
 10
61.741593
 20
224.975659
 30
0.0
  0
LWPOLYLINE
  5
141
100
AcDbEntity
  8
Warstwa_1
 62
1
100
AcDbPolyline
 90
2
 70
0
 10
62.552983
 20
220.503060
 30
0.0
 10
62.552983
 20
221.481760
 30
0.0
  0
LWPOLYLINE
  5
142
100
AcDbEntity
  8
Warstwa_1
 62
1
100
AcDbPolyline
 90
2
 70
0
 10
77.309483
 20
224.975659
 30
0.0
 10
77.309483
 20
221.481760
 30
0.0
  0
LWPOLYLINE
  5
143
100
AcDbEntity
  8
Warstwa_1
 62
1
100
AcDbPolyline
 90
2
 70
0
 10
76.498083
 20
229.975660
 30
0.0
 10
76.498083
 20
224.975659
 30
0.0
  0
LWPOLYLINE
  5
144
100
AcDbEntity
  8
Warstwa_1
 62
1
100
AcDbPolyline
 90
2
 70
0
 10
62.552983
 20
234.448258
 30
0.0
 10
76.498083
 20
234.448258
 30
0.0
  0
LWPOLYLINE
  5
145
100
AcDbEntity
  8
Warstwa_1
 62
1
100
AcDbPolyline
 90
2
 70
0
 10
62.552983
 20
233.469559
 30
0.0
 10
62.552983
 20
234.448258
 30
0.0
  0
LWPOLYLINE
  5
146
100
AcDbEntity
  8
Warstwa_1
 62
1
100
AcDbPolyline
 90
2
 70
0
 10
61.741593
 20
233.469559
 30
0.0
 10
62.552983
 20
233.469559
 30
0.0
  0
LWPOLYLINE
  5
147
100
AcDbEntity
  8
Warstwa_1
 62
1
100
AcDbPolyline
 90
2
 70
0
 10
62.552983
 20
229.975660
 30
0.0
 10
61.741593
 20
229.975660
 30
0.0
  0
LWPOLYLINE
  5
148
100
AcDbEntity
  8
Warstwa_1
 62
1
100
AcDbPolyline
 90
2
 70
0
 10
61.741593
 20
224.975659
 30
0.0
 10
62.552983
 20
224.975659
 30
0.0
  0
LWPOLYLINE
  5
149
100
AcDbEntity
  8
Warstwa_1
 62
1
100
AcDbPolyline
 90
2
 70
0
 10
62.552983
 20
221.481760
 30
0.0
 10
61.741593
 20
221.481760
 30
0.0
  0
LWPOLYLINE
  5
14a
100
AcDbEntity
  8
Warstwa_1
 62
1
100
AcDbPolyline
 90
2
 70
0
 10
76.498083
 20
220.503060
 30
0.0
 10
62.552983
 20
220.503060
 30
0.0
  0
LWPOLYLINE
  5
14b
100
AcDbEntity
  8
Warstwa_1
 62
1
100
AcDbPolyline
 90
2
 70
0
 10
76.498083
 20
221.481760
 30
0.0
 10
76.498083
 20
220.503060
 30
0.0
  0
LWPOLYLINE
  5
14c
100
AcDbEntity
  8
Warstwa_1
 62
1
100
AcDbPolyline
 90
2
 70
0
 10
77.309483
 20
233.469559
 30
0.0
 10
77.309483
 20
229.975660
 30
0.0
  0
LWPOLYLINE
  5
14d
100
AcDbEntity
  8
Warstwa_1
 62
1
100
AcDbPolyline
 90
2
 70
0
 10
76.498083
 20
233.469559
 30
0.0
 10
76.498083
 20
234.448258
 30
0.0
  0
LWPOLYLINE
  5
14e
100
AcDbEntity
  8
Warstwa_1
 62
1
100
AcDbPolyline
 90
2
 70
0
 10
77.309483
 20
233.469559
 30
0.0
 10
76.498083
 20
233.469559
 30
0.0
  0
LWPOLYLINE
  5
14f
100
AcDbEntity
  8
Warstwa_1
 62
1
100
AcDbPolyline
 90
2
 70
0
 10
76.498083
 20
229.975660
 30
0.0
 10
77.309483
 20
229.975660
 30
0.0
  0
LWPOLYLINE
  5
150
100
AcDbEntity
  8
Warstwa_1
 62
1
100
AcDbPolyline
 90
2
 70
0
 10
97.308262
 20
224.975659
 30
0.0
 10
96.496862
 20
224.975659
 30
0.0
  0
LWPOLYLINE
  5
151
100
AcDbEntity
  8
Warstwa_1
 62
1
100
AcDbPolyline
 90
2
 70
0
 10
96.496862
 20
221.481760
 30
0.0
 10
97.308262
 20
221.481760
 30
0.0
  0
LWPOLYLINE
  5
152
100
AcDbEntity
  8
Warstwa_1
 62
1
100
AcDbPolyline
 90
2
 70
0
 10
81.740372
 20
229.975660
 30
0.0
 10
81.740372
 20
233.469559
 30
0.0
  0
LWPOLYLINE
  5
153
100
AcDbEntity
  8
Warstwa_1
 62
1
100
AcDbPolyline
 90
2
 70
0
 10
82.551762
 20
224.975659
 30
0.0
 10
82.551762
 20
229.975660
 30
0.0
  0
LWPOLYLINE
  5
154
100
AcDbEntity
  8
Warstwa_1
 62
1
100
AcDbPolyline
 90
2
 70
0
 10
81.740372
 20
221.481760
 30
0.0
 10
81.740372
 20
224.975659
 30
0.0
  0
LWPOLYLINE
  5
155
100
AcDbEntity
  8
Warstwa_1
 62
1
100
AcDbPolyline
 90
2
 70
0
 10
82.551762
 20
220.503060
 30
0.0
 10
82.551762
 20
221.481760
 30
0.0
  0
LWPOLYLINE
  5
156
100
AcDbEntity
  8
Warstwa_1
 62
1
100
AcDbPolyline
 90
2
 70
0
 10
97.308262
 20
224.975659
 30
0.0
 10
97.308262
 20
221.481760
 30
0.0
  0
LWPOLYLINE
  5
157
100
AcDbEntity
  8
Warstwa_1
 62
1
100
AcDbPolyline
 90
2
 70
0
 10
96.496862
 20
229.975660
 30
0.0
 10
96.496862
 20
224.975659
 30
0.0
  0
LWPOLYLINE
  5
158
100
AcDbEntity
  8
Warstwa_1
 62
1
100
AcDbPolyline
 90
2
 70
0
 10
82.551762
 20
234.448258
 30
0.0
 10
96.496862
 20
234.448258
 30
0.0
  0
LWPOLYLINE
  5
159
100
AcDbEntity
  8
Warstwa_1
 62
1
100
AcDbPolyline
 90
2
 70
0
 10
82.551762
 20
233.469559
 30
0.0
 10
82.551762
 20
234.448258
 30
0.0
  0
LWPOLYLINE
  5
15a
100
AcDbEntity
  8
Warstwa_1
 62
1
100
AcDbPolyline
 90
2
 70
0
 10
81.740372
 20
233.469559
 30
0.0
 10
82.551762
 20
233.469559
 30
0.0
  0
LWPOLYLINE
  5
15b
100
AcDbEntity
  8
Warstwa_1
 62
1
100
AcDbPolyline
 90
2
 70
0
 10
82.551762
 20
229.975660
 30
0.0
 10
81.740372
 20
229.975660
 30
0.0
  0
LWPOLYLINE
  5
15c
100
AcDbEntity
  8
Warstwa_1
 62
1
100
AcDbPolyline
 90
2
 70
0
 10
81.740372
 20
224.975659
 30
0.0
 10
82.551762
 20
224.975659
 30
0.0
  0
LWPOLYLINE
  5
15d
100
AcDbEntity
  8
Warstwa_1
 62
1
100
AcDbPolyline
 90
2
 70
0
 10
82.551762
 20
221.481760
 30
0.0
 10
81.740372
 20
221.481760
 30
0.0
  0
LWPOLYLINE
  5
15e
100
AcDbEntity
  8
Warstwa_1
 62
1
100
AcDbPolyline
 90
2
 70
0
 10
96.496862
 20
220.503060
 30
0.0
 10
82.551762
 20
220.503060
 30
0.0
  0
LWPOLYLINE
  5
15f
100
AcDbEntity
  8
Warstwa_1
 62
1
100
AcDbPolyline
 90
2
 70
0
 10
96.496862
 20
221.481760
 30
0.0
 10
96.496862
 20
220.503060
 30
0.0
  0
LWPOLYLINE
  5
160
100
AcDbEntity
  8
Warstwa_1
 62
1
100
AcDbPolyline
 90
2
 70
0
 10
97.308262
 20
233.469559
 30
0.0
 10
97.308262
 20
229.975660
 30
0.0
  0
LWPOLYLINE
  5
161
100
AcDbEntity
  8
Warstwa_1
 62
1
100
AcDbPolyline
 90
2
 70
0
 10
96.496862
 20
233.469559
 30
0.0
 10
96.496862
 20
234.448258
 30
0.0
  0
LWPOLYLINE
  5
162
100
AcDbEntity
  8
Warstwa_1
 62
1
100
AcDbPolyline
 90
2
 70
0
 10
97.308262
 20
233.469559
 30
0.0
 10
96.496862
 20
233.469559
 30
0.0
  0
LWPOLYLINE
  5
163
100
AcDbEntity
  8
Warstwa_1
 62
1
100
AcDbPolyline
 90
2
 70
0
 10
96.496862
 20
229.975660
 30
0.0
 10
97.308262
 20
229.975660
 30
0.0
  0
SPLINE
  5
164
100
AcDbEntity
  8
Warstwa_1
 62
7
100
AcDbSpline
 70
8
 71
3
 72
8
 73
4
 74
0
 40
0
 40
0
 40
0
 40
0
 40
1
 40
1
 40
1
 40
1
 10
55.748638
 20
253.450127
 30
0.0
 10
55.806834
 20
253.450127
 30
0.0
 10
55.862647
 20
253.427009
 30
0.0
 10
55.903798
 20
253.385858
 30
0.0
  0
SPLINE
  5
165
100
AcDbEntity
  8
Warstwa_1
 62
7
100
AcDbSpline
 70
8
 71
3
 72
8
 73
4
 74
0
 40
0
 40
0
 40
0
 40
0
 40
1
 40
1
 40
1
 40
1
 10
55.903798
 20
253.385858
 30
0.0
 10
55.944949
 20
253.344707
 30
0.0
 10
55.968067
 20
253.288894
 30
0.0
 10
55.968067
 20
253.230698
 30
0.0
  0
LWPOLYLINE
  5
166
100
AcDbEntity
  8
Warstwa_1
 62
7
100
AcDbPolyline
 90
2
 70
0
 10
43.187496
 20
253.450127
 30
0.0
 10
55.748638
 20
253.450127
 30
0.0
  0
SPLINE
  5
167
100
AcDbEntity
  8
Warstwa_1
 62
7
100
AcDbSpline
 70
8
 71
3
 72
8
 73
4
 74
0
 40
0
 40
0
 40
0
 40
0
 40
1
 40
1
 40
1
 40
1
 10
55.968067
 20
241.969556
 30
0.0
 10
55.968067
 20
241.911360
 30
0.0
 10
55.944949
 20
241.855547
 30
0.0
 10
55.903798
 20
241.814396
 30
0.0
  0
SPLINE
  5
168
100
AcDbEntity
  8
Warstwa_1
 62
7
100
AcDbSpline
 70
8
 71
3
 72
8
 73
4
 74
0
 40
0
 40
0
 40
0
 40
0
 40
1
 40
1
 40
1
 40
1
 10
55.903798
 20
241.814396
 30
0.0
 10
55.862647
 20
241.773245
 30
0.0
 10
55.806834
 20
241.750127
 30
0.0
 10
55.748638
 20
241.750127
 30
0.0
  0
LWPOLYLINE
  5
169
100
AcDbEntity
  8
Warstwa_1
 62
7
100
AcDbPolyline
 90
2
 70
0
 10
55.968067
 20
253.230698
 30
0.0
 10
55.968067
 20
241.969556
 30
0.0
  0
SPLINE
  5
16a
100
AcDbEntity
  8
Warstwa_1
 62
7
100
AcDbSpline
 70
8
 71
3
 72
8
 73
4
 74
0
 40
0
 40
0
 40
0
 40
0
 40
1
 40
1
 40
1
 40
1
 10
43.187496
 20
241.750127
 30
0.0
 10
43.129300
 20
241.750127
 30
0.0
 10
43.073487
 20
241.773245
 30
0.0
 10
43.032336
 20
241.814396
 30
0.0
  0
SPLINE
  5
16b
100
AcDbEntity
  8
Warstwa_1
 62
7
100
AcDbSpline
 70
8
 71
3
 72
8
 73
4
 74
0
 40
0
 40
0
 40
0
 40
0
 40
1
 40
1
 40
1
 40
1
 10
43.032336
 20
241.814396
 30
0.0
 10
42.991185
 20
241.855547
 30
0.0
 10
42.968067
 20
241.911360
 30
0.0
 10
42.968067
 20
241.969556
 30
0.0
  0
LWPOLYLINE
  5
16c
100
AcDbEntity
  8
Warstwa_1
 62
7
100
AcDbPolyline
 90
2
 70
0
 10
55.748638
 20
241.750127
 30
0.0
 10
43.187496
 20
241.750127
 30
0.0
  0
SPLINE
  5
16d
100
AcDbEntity
  8
Warstwa_1
 62
7
100
AcDbSpline
 70
8
 71
3
 72
8
 73
4
 74
0
 40
0
 40
0
 40
0
 40
0
 40
1
 40
1
 40
1
 40
1
 10
42.968067
 20
253.230698
 30
0.0
 10
42.968067
 20
253.288894
 30
0.0
 10
42.991185
 20
253.344707
 30
0.0
 10
43.032336
 20
253.385858
 30
0.0
  0
SPLINE
  5
16e
100
AcDbEntity
  8
Warstwa_1
 62
7
100
AcDbSpline
 70
8
 71
3
 72
8
 73
4
 74
0
 40
0
 40
0
 40
0
 40
0
 40
1
 40
1
 40
1
 40
1
 10
43.032336
 20
253.385858
 30
0.0
 10
43.073487
 20
253.427009
 30
0.0
 10
43.129300
 20
253.450127
 30
0.0
 10
43.187496
 20
253.450127
 30
0.0
  0
LWPOLYLINE
  5
16f
100
AcDbEntity
  8
Warstwa_1
 62
7
100
AcDbPolyline
 90
2
 70
0
 10
42.968067
 20
241.969556
 30
0.0
 10
42.968067
 20
253.230698
 30
0.0
  0
LWPOLYLINE
  5
170
100
AcDbEntity
  8
Warstwa_1
 62
7
100
AcDbPolyline
 90
1
 70
1
 10
43.187496
 20
253.450127
 30
0.0
  0
SPLINE
  5
171
100
AcDbEntity
  8
Warstwa_1
 62
7
100
AcDbSpline
 70
8
 71
3
 72
8
 73
4
 74
0
 40
0
 40
0
 40
0
 40
0
 40
1
 40
1
 40
1
 40
1
 10
102.998240
 20
262.000591
 30
0.0
 10
103.528673
 20
262.000591
 30
0.0
 10
104.037381
 20
261.789877
 30
0.0
 10
104.412454
 20
261.414804
 30
0.0
  0
SPLINE
  5
172
100
AcDbEntity
  8
Warstwa_1
 62
7
100
AcDbSpline
 70
8
 71
3
 72
8
 73
4
 74
0
 40
0
 40
0
 40
0
 40
0
 40
1
 40
1
 40
1
 40
1
 10
104.412454
 20
261.414804
 30
0.0
 10
104.787527
 20
261.039731
 30
0.0
 10
104.998241
 20
260.531023
 30
0.0
 10
104.998241
 20
260.000590
 30
0.0
  0
LWPOLYLINE
  5
173
100
AcDbEntity
  8
Warstwa_1
 62
7
100
AcDbPolyline
 90
2
 70
0
 10
36.991147
 20
262.000591
 30
0.0
 10
102.998240
 20
262.000591
 30
0.0
  0
SPLINE
  5
174
100
AcDbEntity
  8
Warstwa_1
 62
7
100
AcDbSpline
 70
8
 71
3
 72
8
 73
4
 74
0
 40
0
 40
0
 40
0
 40
0
 40
1
 40
1
 40
1
 40
1
 10
104.998241
 20
214.000542
 30
0.0
 10
104.998241
 20
213.470109
 30
0.0
 10
104.787527
 20
212.961401
 30
0.0
 10
104.412454
 20
212.586328
 30
0.0
  0
SPLINE
  5
175
100
AcDbEntity
  8
Warstwa_1
 62
7
100
AcDbSpline
 70
8
 71
3
 72
8
 73
4
 74
0
 40
0
 40
0
 40
0
 40
0
 40
1
 40
1
 40
1
 40
1
 10
104.412454
 20
212.586328
 30
0.0
 10
104.037381
 20
212.211255
 30
0.0
 10
103.528673
 20
212.000541
 30
0.0
 10
102.998240
 20
212.000541
 30
0.0
  0
LWPOLYLINE
  5
176
100
AcDbEntity
  8
Warstwa_1
 62
7
100
AcDbPolyline
 90
2
 70
0
 10
104.998241
 20
260.000590
 30
0.0
 10
104.998241
 20
214.000542
 30
0.0
  0
SPLINE
  5
177
100
AcDbEntity
  8
Warstwa_1
 62
7
100
AcDbSpline
 70
8
 71
3
 72
8
 73
4
 74
0
 40
0
 40
0
 40
0
 40
0
 40
1
 40
1
 40
1
 40
1
 10
36.991147
 20
212.000541
 30
0.0
 10
36.460714
 20
212.000541
 30
0.0
 10
35.952006
 20
212.211255
 30
0.0
 10
35.576933
 20
212.586328
 30
0.0
  0
SPLINE
  5
178
100
AcDbEntity
  8
Warstwa_1
 62
7
100
AcDbSpline
 70
8
 71
3
 72
8
 73
4
 74
0
 40
0
 40
0
 40
0
 40
0
 40
1
 40
1
 40
1
 40
1
 10
35.576933
 20
212.586328
 30
0.0
 10
35.201860
 20
212.961401
 30
0.0
 10
34.991146
 20
213.470109
 30
0.0
 10
34.991146
 20
214.000542
 30
0.0
  0
LWPOLYLINE
  5
179
100
AcDbEntity
  8
Warstwa_1
 62
7
100
AcDbPolyline
 90
2
 70
0
 10
102.998240
 20
212.000541
 30
0.0
 10
36.991147
 20
212.000541
 30
0.0
  0
SPLINE
  5
17a
100
AcDbEntity
  8
Warstwa_1
 62
7
100
AcDbSpline
 70
8
 71
3
 72
8
 73
4
 74
0
 40
0
 40
0
 40
0
 40
0
 40
1
 40
1
 40
1
 40
1
 10
34.991146
 20
260.000590
 30
0.0
 10
34.991146
 20
260.531023
 30
0.0
 10
35.201860
 20
261.039731
 30
0.0
 10
35.576933
 20
261.414804
 30
0.0
  0
SPLINE
  5
17b
100
AcDbEntity
  8
Warstwa_1
 62
7
100
AcDbSpline
 70
8
 71
3
 72
8
 73
4
 74
0
 40
0
 40
0
 40
0
 40
0
 40
1
 40
1
 40
1
 40
1
 10
35.576933
 20
261.414804
 30
0.0
 10
35.952006
 20
261.789877
 30
0.0
 10
36.460714
 20
262.000591
 30
0.0
 10
36.991147
 20
262.000591
 30
0.0
  0
LWPOLYLINE
  5
17c
100
AcDbEntity
  8
Warstwa_1
 62
7
100
AcDbPolyline
 90
2
 70
0
 10
34.991146
 20
214.000542
 30
0.0
 10
34.991146
 20
260.000590
 30
0.0
  0
LWPOLYLINE
  5
17d
100
AcDbEntity
  8
Warstwa_1
 62
7
100
AcDbPolyline
 90
1
 70
1
 10
36.991147
 20
262.000591
 30
0.0
  0
SPLINE
  5
17e
100
AcDbEntity
  8
Warstwa_1
 62
7
100
AcDbSpline
 70
8
 71
3
 72
8
 73
4
 74
0
 40
0
 40
0
 40
0
 40
0
 40
1
 40
1
 40
1
 40
1
 10
102.998240
 20
197.000938
 30
0.0
 10
103.528673
 20
197.000938
 30
0.0
 10
104.037381
 20
196.790224
 30
0.0
 10
104.412454
 20
196.415151
 30
0.0
  0
SPLINE
  5
17f
100
AcDbEntity
  8
Warstwa_1
 62
7
100
AcDbSpline
 70
8
 71
3
 72
8
 73
4
 74
0
 40
0
 40
0
 40
0
 40
0
 40
1
 40
1
 40
1
 40
1
 10
104.412454
 20
196.415151
 30
0.0
 10
104.787527
 20
196.040078
 30
0.0
 10
104.998241
 20
195.531370
 30
0.0
 10
104.998241
 20
195.000937
 30
0.0
  0
LWPOLYLINE
  5
180
100
AcDbEntity
  8
Warstwa_1
 62
7
100
AcDbPolyline
 90
2
 70
0
 10
36.991147
 20
197.000938
 30
0.0
 10
102.998240
 20
197.000938
 30
0.0
  0
SPLINE
  5
181
100
AcDbEntity
  8
Warstwa_1
 62
7
100
AcDbSpline
 70
8
 71
3
 72
8
 73
4
 74
0
 40
0
 40
0
 40
0
 40
0
 40
1
 40
1
 40
1
 40
1
 10
104.998241
 20
149.000889
 30
0.0
 10
104.998241
 20
148.470456
 30
0.0
 10
104.787527
 20
147.961748
 30
0.0
 10
104.412454
 20
147.586675
 30
0.0
  0
SPLINE
  5
182
100
AcDbEntity
  8
Warstwa_1
 62
7
100
AcDbSpline
 70
8
 71
3
 72
8
 73
4
 74
0
 40
0
 40
0
 40
0
 40
0
 40
1
 40
1
 40
1
 40
1
 10
104.412454
 20
147.586675
 30
0.0
 10
104.037381
 20
147.211602
 30
0.0
 10
103.528673
 20
147.000888
 30
0.0
 10
102.998240
 20
147.000888
 30
0.0
  0
LWPOLYLINE
  5
183
100
AcDbEntity
  8
Warstwa_1
 62
7
100
AcDbPolyline
 90
2
 70
0
 10
104.998241
 20
195.000937
 30
0.0
 10
104.998241
 20
149.000889
 30
0.0
  0
SPLINE
  5
184
100
AcDbEntity
  8
Warstwa_1
 62
7
100
AcDbSpline
 70
8
 71
3
 72
8
 73
4
 74
0
 40
0
 40
0
 40
0
 40
0
 40
1
 40
1
 40
1
 40
1
 10
36.991147
 20
147.000888
 30
0.0
 10
36.460714
 20
147.000888
 30
0.0
 10
35.952006
 20
147.211602
 30
0.0
 10
35.576933
 20
147.586675
 30
0.0
  0
SPLINE
  5
185
100
AcDbEntity
  8
Warstwa_1
 62
7
100
AcDbSpline
 70
8
 71
3
 72
8
 73
4
 74
0
 40
0
 40
0
 40
0
 40
0
 40
1
 40
1
 40
1
 40
1
 10
35.576933
 20
147.586675
 30
0.0
 10
35.201860
 20
147.961748
 30
0.0
 10
34.991146
 20
148.470456
 30
0.0
 10
34.991146
 20
149.000889
 30
0.0
  0
LWPOLYLINE
  5
186
100
AcDbEntity
  8
Warstwa_1
 62
7
100
AcDbPolyline
 90
2
 70
0
 10
102.998240
 20
147.000888
 30
0.0
 10
36.991147
 20
147.000888
 30
0.0
  0
SPLINE
  5
187
100
AcDbEntity
  8
Warstwa_1
 62
7
100
AcDbSpline
 70
8
 71
3
 72
8
 73
4
 74
0
 40
0
 40
0
 40
0
 40
0
 40
1
 40
1
 40
1
 40
1
 10
34.991146
 20
195.000937
 30
0.0
 10
34.991146
 20
195.531370
 30
0.0
 10
35.201860
 20
196.040078
 30
0.0
 10
35.576933
 20
196.415151
 30
0.0
  0
SPLINE
  5
188
100
AcDbEntity
  8
Warstwa_1
 62
7
100
AcDbSpline
 70
8
 71
3
 72
8
 73
4
 74
0
 40
0
 40
0
 40
0
 40
0
 40
1
 40
1
 40
1
 40
1
 10
35.576933
 20
196.415151
 30
0.0
 10
35.952006
 20
196.790224
 30
0.0
 10
36.460714
 20
197.000938
 30
0.0
 10
36.991147
 20
197.000938
 30
0.0
  0
LWPOLYLINE
  5
189
100
AcDbEntity
  8
Warstwa_1
 62
7
100
AcDbPolyline
 90
2
 70
0
 10
34.991146
 20
149.000889
 30
0.0
 10
34.991146
 20
195.000937
 30
0.0
  0
LWPOLYLINE
  5
18a
100
AcDbEntity
  8
Warstwa_1
 62
7
100
AcDbPolyline
 90
1
 70
1
 10
36.991147
 20
197.000938
 30
0.0
  0
ENDSEC
  0
SECTION
  2
OBJECTS
  0
DICTIONARY
  5
C
330
0
100
AcDbDictionary
  3
ACAD_GROUP
350
D
  3
ACAD_MLINESTYLE
350
17
  0
DICTIONARY
  5
D
330
C
100
AcDbDictionary
  0
DICTIONARY
  5
1A
330
C
100
AcDbDictionary
  0
DICTIONARY
  5
17
330
C
100
AcDbDictionary
  3
STANDARD
350
18
  0
DICTIONARY
  5
19
330
C
100
AcDbDictionary
  0
ENDSEC
  0
EOF
